<?xml version="1.0" encoding="UTF-8" standalone="no"?>
<svg viewBox="14 11.5 47 47.3" width="200px" xmlns="http://www.w3.org/2000/svg" version="1.0" height="200px">
 <defs>
  <linearGradient id="grad" x2="40%" y2="100%">
   <stop stop-color="#653920" offset="0"/>
   <stop stop-color="#CC9F22" offset=".15"/>
   <stop stop-color="#FCF9F3" offset=".38"/>
   <stop stop-color="#C7922F" offset=".7"/>
   <stop stop-color="#7D452A" offset="1"/>
  </linearGradient>
 </defs>
 <path stroke-linejoin="round" d="m36.988 51.397c1.8538-0.0853 4.6786-0.55867 5.5615-0.25575 1.2657 0.43431-0.95268 2.4205-0.39407 3.8869 0.41897 1.0475 2.337 1.7458 3.7011 1.7458 1.6061 0 3.8494-0.80201 3.4592-2.2071-0.34912-1.2569-1.656-2.727-0.52626-3.3794 0.6033-0.34837 3.3984 0.13968 5.0976 0.20953m-17.16-33.36c1.8538-0.0852 4.6786-0.55866 5.5615-0.25569 1.2658 0.43431-0.95268 2.4204-0.39404 3.8869 0.41897 1.0474 2.337 1.7458 3.701 1.7458 1.6061 0 3.8494-0.80201 3.4592-2.2071-0.34912-1.2569-1.656-2.727-0.52626-3.3794 0.6033-0.34835 3.3984 0.1397 5.0976 0.20949m0.008-0.0337c-0.0853 1.8538-0.55867 4.6787-0.25575 5.5615 0.43434 1.2657 2.4205-0.95269 3.887-0.39407 1.0474 0.41902 1.7458 2.337 1.7458 3.7011 0 1.6061-0.80201 3.8494-2.207 3.4592-1.2569-0.34912-2.7271-1.656-3.3794-0.52626-0.34835 0.60328 0.13965 3.3984 0.2095 5.0976m-16.907-0.11586c1.8538 0.0853 4.6786 0.55867 5.5615 0.25572 1.2658-0.43431-0.95268-2.4204-0.39404-3.8869 0.41897-1.0474 2.337-1.7458 3.701-1.7458 1.6061 0 3.8494 0.80198 3.4592 2.207-0.34912 1.257-1.656 2.7271-0.52626 3.3795 0.6033 0.34835 3.3984-0.1397 5.0976-0.20953m-33.178-0.15743c0.0853 1.8538 0.55867 4.6787 0.25575 5.5615-0.43434 1.2657-2.4205-0.95269-3.8869-0.39404-1.0475 0.41899-1.7458 2.337-1.7458 3.701 0 1.6062 0.80201 3.8494 2.207 3.4592 1.257-0.34912 2.7271-1.656 3.3795-0.52629 0.34832 0.60328-0.13968 3.3984-0.20953 5.0976m16.907-0.11583c-1.8538 0.0852-4.6786 0.55867-5.5615 0.25569-1.2657-0.43431 0.95268-2.4204 0.39407-3.8869-0.41897-1.0474-2.337-1.7458-3.7011-1.7458-1.6061 0-3.8494 0.802-3.4592 2.2071 0.34912 1.2569 1.656 2.727 0.52626 3.3794-0.6033 0.34835-3.3984-0.1397-5.0976-0.2095m0.0193-16.535c-0.0852-1.8538-0.55866-4.6786-0.25572-5.5615 0.43432-1.2657 2.4204 0.95269 3.8869 0.39407 1.0475-0.41897 1.7458-2.337 1.7458-3.7011 0-1.6061-0.80198-3.8494-2.207-3.4592-1.2569 0.34912-2.7271 1.656-3.3795 0.52628-0.34832-0.60333 0.1397-3.3984 0.20952-5.0977m16.594 33.525c-0.0852-1.8538-0.55867-4.6786-0.25572-5.5615 0.43431-1.2657 2.4204 0.95268 3.8869 0.39404 1.0474-0.41896 1.7458-2.337 1.7458-3.701 0-1.6061-0.80197-3.8494-2.207-3.4592-1.257 0.34911-2.7271 1.6559-3.3795 0.52625-0.34835-0.6033 0.1397-3.3984 0.20952-5.0976m-16.628-16.633c1.8538 0.0853 4.6787 0.55864 5.5615 0.25572 1.2657-0.43434-0.95268-2.4205-0.39404-3.8869 0.41899-1.0474 2.337-1.7458 3.701-1.7458 1.6062 0 3.8494 0.802 3.4592 2.207-0.34912 1.257-1.656 2.7271-0.52629 3.3795 0.60328 0.34835 3.3984-0.13967 5.0976-0.2095m-0.11584 16.907c0.0852-1.8538 0.55867-4.6786 0.25569-5.5615-0.43431-1.2657-2.4204 0.95269-3.8869 0.39407-1.0474-0.41897-1.7458-2.337-1.7458-3.7011 0-1.6061 0.802-3.8494 2.2071-3.4592 1.2569 0.34912 2.727 1.656 3.3794 0.52628 0.34835-0.60333-0.1397-3.3984-0.2095-5.0977m16.594 33.525c0.0852-1.8538 0.55867-4.6786 0.25569-5.5615-0.43431-1.2657-2.4204 0.95268-3.8869 0.39404-1.0474-0.41896-1.7458-2.337-1.7458-3.701 0-1.6061 0.802-3.8494 2.2071-3.4592 1.2569 0.34911 2.727 1.6559 3.3794 0.52625 0.34835-0.6033-0.1397-3.3984-0.20949-5.0976m-33.425 0.16627c1.8538-0.0853 4.6787-0.55867 5.5615-0.25575 1.2657 0.43432-0.95269 2.4205-0.39405 3.887 0.41897 1.0474 2.337 1.7458 3.701 1.7458 1.6061 0 3.8494-0.80198 3.4592-2.207-0.34912-1.257-1.656-2.7271-0.52626-3.3794 0.60331-0.3484 3.3984 0.13965 5.0976 0.2095" transform="translate(1 1)" stroke="#000" stroke-linecap="round" stroke-width="1.6" fill="none"/>
 <path stroke-linejoin="round" d="m36.988 51.397c1.8538-0.0853 4.6786-0.55867 5.5615-0.25575 1.2657 0.43431-0.95268 2.4205-0.39407 3.8869 0.41897 1.0475 2.337 1.7458 3.7011 1.7458 1.6061 0 3.8494-0.80201 3.4592-2.2071-0.34912-1.2569-1.656-2.727-0.52626-3.3794 0.6033-0.34837 3.3984 0.13968 5.0976 0.20953m-17.16-33.36c1.8538-0.0852 4.6786-0.55866 5.5615-0.25569 1.2658 0.43431-0.95268 2.4204-0.39404 3.8869 0.41897 1.0474 2.337 1.7458 3.701 1.7458 1.6061 0 3.8494-0.80201 3.4592-2.2071-0.34912-1.2569-1.656-2.727-0.52626-3.3794 0.6033-0.34835 3.3984 0.1397 5.0976 0.20949m0.008-0.0337c-0.0853 1.8538-0.55867 4.6787-0.25575 5.5615 0.43434 1.2657 2.4205-0.95269 3.887-0.39407 1.0474 0.41902 1.7458 2.337 1.7458 3.7011 0 1.6061-0.80201 3.8494-2.207 3.4592-1.2569-0.34912-2.7271-1.656-3.3794-0.52626-0.34835 0.60328 0.13965 3.3984 0.2095 5.0976m-16.907-0.11586c1.8538 0.0853 4.6786 0.55867 5.5615 0.25572 1.2658-0.43431-0.95268-2.4204-0.39404-3.8869 0.41897-1.0474 2.337-1.7458 3.701-1.7458 1.6061 0 3.8494 0.80198 3.4592 2.207-0.34912 1.257-1.656 2.7271-0.52626 3.3795 0.6033 0.34835 3.3984-0.1397 5.0976-0.20953m-33.178-0.15743c0.0853 1.8538 0.55867 4.6787 0.25575 5.5615-0.43434 1.2657-2.4205-0.95269-3.8869-0.39404-1.0475 0.41899-1.7458 2.337-1.7458 3.701 0 1.6062 0.80201 3.8494 2.207 3.4592 1.257-0.34912 2.7271-1.656 3.3795-0.52629 0.34832 0.60328-0.13968 3.3984-0.20953 5.0976m16.907-0.11583c-1.8538 0.0852-4.6786 0.55867-5.5615 0.25569-1.2657-0.43431 0.95268-2.4204 0.39407-3.8869-0.41897-1.0474-2.337-1.7458-3.7011-1.7458-1.6061 0-3.8494 0.802-3.4592 2.2071 0.34912 1.2569 1.656 2.727 0.52626 3.3794-0.6033 0.34835-3.3984-0.1397-5.0976-0.2095m0.0193-16.535c-0.0852-1.8538-0.55866-4.6786-0.25572-5.5615 0.43432-1.2657 2.4204 0.95269 3.8869 0.39407 1.0475-0.41897 1.7458-2.337 1.7458-3.7011 0-1.6061-0.80198-3.8494-2.207-3.4592-1.2569 0.34912-2.7271 1.656-3.3795 0.52628-0.34832-0.60333 0.1397-3.3984 0.20952-5.0977m16.594 33.525c-0.0852-1.8538-0.55867-4.6786-0.25572-5.5615 0.43431-1.2657 2.4204 0.95268 3.8869 0.39404 1.0474-0.41896 1.7458-2.337 1.7458-3.701 0-1.6061-0.80197-3.8494-2.207-3.4592-1.257 0.34911-2.7271 1.6559-3.3795 0.52625-0.34835-0.6033 0.1397-3.3984 0.20952-5.0976m-16.628-16.633c1.8538 0.0853 4.6787 0.55864 5.5615 0.25572 1.2657-0.43434-0.95268-2.4205-0.39404-3.8869 0.41899-1.0474 2.337-1.7458 3.701-1.7458 1.6062 0 3.8494 0.802 3.4592 2.207-0.34912 1.257-1.656 2.7271-0.52629 3.3795 0.60328 0.34835 3.3984-0.13967 5.0976-0.2095m-0.11584 16.907c0.0852-1.8538 0.55867-4.6786 0.25569-5.5615-0.43431-1.2657-2.4204 0.95269-3.8869 0.39407-1.0474-0.41897-1.7458-2.337-1.7458-3.7011 0-1.6061 0.802-3.8494 2.2071-3.4592 1.2569 0.34912 2.727 1.656 3.3794 0.52628 0.34835-0.60333-0.1397-3.3984-0.2095-5.0977m16.594 33.525c0.0852-1.8538 0.55867-4.6786 0.25569-5.5615-0.43431-1.2657-2.4204 0.95268-3.8869 0.39404-1.0474-0.41896-1.7458-2.337-1.7458-3.701 0-1.6061 0.802-3.8494 2.2071-3.4592 1.2569 0.34911 2.727 1.6559 3.3794 0.52625 0.34835-0.6033-0.1397-3.3984-0.20949-5.0976m-33.425 0.16627c1.8538-0.0853 4.6787-0.55867 5.5615-0.25575 1.2657 0.43432-0.95269 2.4205-0.39405 3.887 0.41897 1.0474 2.337 1.7458 3.701 1.7458 1.6061 0 3.8494-0.80198 3.4592-2.207-0.34912-1.257-1.656-2.7271-0.52626-3.3794 0.60331-0.3484 3.3984 0.13965 5.0976 0.2095" stroke="url(#grad)" stroke-linecap="round" stroke-width="1.6" fill="none"/>
</svg>
