<svg xmlns="http://www.w3.org/2000/svg" width="200" height="200" viewBox="14 11.5 47 47.3"><defs><linearGradient id="a" x1="0%" y1="0%" x2="40%" y2="100%"><stop offset="0%" stop-color="#653920"/><stop offset="15%" stop-color="#cc9f22"/><stop offset="38%" stop-color="#fcf9f3"/><stop offset="70%" stop-color="#c7922f"/><stop offset="100%" stop-color="#7d452a"/></linearGradient></defs><path d="M36.988 51.397c1.854-.085 4.679-.558 5.562-.256 1.265.435-.953 2.42-.394 3.887.419 1.048 2.337 1.746 3.7 1.746 1.607 0 3.85-.802 3.46-2.207-.35-1.257-1.656-2.727-.526-3.38.603-.348 3.398.14 5.097.21m-17.16-33.36c1.855-.085 4.68-.558 5.562-.255 1.266.434-.952 2.42-.394 3.887.42 1.047 2.337 1.746 3.701 1.746 1.606 0 3.85-.802 3.46-2.207-.35-1.257-1.657-2.727-.527-3.38.603-.348 3.399.14 5.098.21m.008-.034c-.085 1.854-.559 4.679-.256 5.561.434 1.266 2.42-.952 3.887-.394 1.047.42 1.746 2.337 1.746 3.701 0 1.607-.802 3.85-2.207 3.46-1.257-.35-2.727-1.656-3.38-.527-.348.604.14 3.399.21 5.098m-16.907-.116c1.854.085 4.679.559 5.562.256 1.266-.434-.953-2.42-.394-3.887.419-1.047 2.337-1.746 3.7-1.746 1.607 0 3.85.802 3.46 2.207-.35 1.257-1.656 2.727-.526 3.38.603.348 3.398-.14 5.097-.21M20.45 34.63c.085 1.854.558 4.678.255 5.561-.434 1.266-2.42-.952-3.887-.394-1.047.42-1.745 2.337-1.745 3.701 0 1.606.802 3.85 2.207 3.46 1.257-.35 2.727-1.657 3.379-.527.348.603-.14 3.399-.21 5.098m16.907-.116c-1.854.085-4.678.559-5.561.256-1.266-.435.952-2.42.394-3.887-.42-1.048-2.337-1.746-3.701-1.746-1.606 0-3.85.802-3.46 2.207.35 1.257 1.656 2.727.527 3.38-.604.348-3.399-.14-5.098-.21m.02-16.535c-.086-1.853-.56-4.678-.256-5.561.434-1.266 2.42.953 3.887.394 1.047-.419 1.745-2.337 1.745-3.701 0-1.606-.802-3.85-2.207-3.46-1.257.35-2.727 1.657-3.38.527-.347-.603.14-3.398.21-5.098M37.07 51.504c-.085-1.854-.558-4.678-.256-5.561.435-1.266 2.42.952 3.887.394 1.048-.42 1.746-2.337 1.746-3.701 0-1.606-.802-3.85-2.207-3.46-1.257.35-2.727 1.656-3.38.527-.348-.603.14-3.399.21-5.098M20.443 17.972c1.853.085 4.678.558 5.561.256 1.266-.435-.953-2.42-.394-3.887.42-1.048 2.337-1.746 3.701-1.746 1.606 0 3.85.802 3.46 2.207-.35 1.257-1.657 2.727-.527 3.38.603.348 3.398-.14 5.098-.21m-.116 16.906c.085-1.853.559-4.678.256-5.561-.435-1.266-2.42.953-3.887.394-1.048-.419-1.746-2.337-1.746-3.701 0-1.606.802-3.85 2.207-3.46 1.257.35 2.727 1.657 3.38.527.348-.603-.14-3.398-.21-5.098M53.82 51.504c.085-1.854.558-4.678.255-5.561-.434-1.266-2.42.952-3.886.394-1.048-.42-1.746-2.337-1.746-3.701 0-1.606.802-3.85 2.207-3.46 1.257.35 2.727 1.656 3.38.527.348-.603-.14-3.399-.21-5.098m-33.425.166c1.854-.085 4.678-.558 5.561-.255 1.266.434-.952 2.42-.394 3.887.42 1.047 2.337 1.745 3.701 1.745 1.606 0 3.85-.802 3.46-2.207-.35-1.257-1.657-2.727-.527-3.38.604-.347 3.399.14 5.098.21" fill="none" stroke="url(#a)" stroke-width="1.6" stroke-linecap="round" stroke-linejoin="round" stroke-dasharray="none"/></svg>