<svg version="1.0" xmlns="http://www.w3.org/2000/svg" width="200px" height="200px" viewBox="14 11.5 46 46.3">
    <path style="fill:none;stroke:#fff;stroke-width:1.6;stroke-linecap:round;stroke-linejoin:round;stroke-dasharray:none"
       d="m 36.988176,51.397238 c 1.8538,-0.0853 4.67865,-0.55867 5.56151,-0.25575 1.26574,0.43431 -0.95268,2.42046 -0.39407,3.88694 0.41897,1.04746 2.33704,1.74578 3.70107,1.74578 1.60611,0 3.84943,-0.80201 3.45917,-2.20708 -0.34912,-1.25693 -1.65598,-2.72703 -0.52626,-3.37942 0.6033,-0.34837 3.39842,0.13968 5.09765,0.20953 m -17.1595,-33.3596 c 1.85383,-0.0852 4.67865,-0.55866 5.56151,-0.25569 1.26575,0.43431 -0.95268,2.42044 -0.39404,3.88691 0.41897,1.04744 2.33701,1.74581 3.70105,1.74581 1.6061,0 3.84942,-0.80201 3.45916,-2.20708 -0.34912,-1.25693 -1.65598,-2.72703 -0.52626,-3.37944 0.6033,-0.34835 3.39842,0.1397 5.09765,0.20949 m 0.008,-0.0337 c -0.0853,1.85383 -0.55867,4.6787 -0.25575,5.56154 0.43434,1.26571 2.42046,-0.95269 3.88697,-0.39407 1.04743,0.41902 1.74575,2.33704 1.74575,3.70107 0,1.60613 -0.80201,3.84942 -2.20702,3.45919 -1.25693,-0.34912 -2.72709,-1.65595 -3.37945,-0.52626 -0.34835,0.60328 0.13965,3.39839 0.2095,5.09762 m -16.90657,-0.11586 c 1.85383,0.0853 4.67865,0.55867 5.56151,0.25572 1.26575,-0.43431 -0.95268,-2.42043 -0.39404,-3.88691 0.41897,-1.04744 2.33701,-1.7458 3.70105,-1.7458 1.6061,0 3.84942,0.80198 3.45916,2.20705 -0.34912,1.25695 -1.65598,2.72706 -0.52626,3.37947 0.6033,0.34835 3.39842,-0.1397 5.09765,-0.20953 m -33.1778,-0.15743 c 0.0853,1.85383 0.55867,4.67868 0.25575,5.56152 -0.43434,1.26574 -2.42046,-0.95269 -3.88694,-0.39404 -1.04746,0.41899 -1.74578,2.33701 -1.74578,3.70104 0,1.60615 0.80201,3.84945 2.20703,3.45922 1.25695,-0.34912 2.72708,-1.65598 3.37947,-0.52629 0.34832,0.60328 -0.13968,3.39839 -0.20953,5.09762 m 16.90661,-0.11583 c -1.8538,0.0852 -4.67862,0.55867 -5.56151,0.25569 -1.26574,-0.43431 0.95268,-2.42041 0.39407,-3.88691 -0.41897,-1.04743 -2.33704,-1.7458 -3.70107,-1.7458 -1.6061,0 -3.84943,0.802 -3.45917,2.20707 0.34912,1.25693 1.65598,2.72704 0.52626,3.37945 -0.6033,0.34835 -3.39841,-0.1397 -5.09765,-0.2095 m 0.0193,-16.53453 c -0.0852,-1.85383 -0.55866,-4.67865 -0.25572,-5.56154 0.43432,-1.26574 2.42044,0.95269 3.88692,0.39407 1.04746,-0.41897 1.7458,-2.33704 1.7458,-3.70107 0,-1.6061 -0.80198,-3.84942 -2.20705,-3.45916 -1.25693,0.34912 -2.72706,1.65597 -3.37947,0.52628 -0.34832,-0.60333 0.1397,-3.39844 0.20952,-5.09767 m 16.59385,33.52487 c -0.0852,-1.85382 -0.55867,-4.67865 -0.25572,-5.56151 0.43431,-1.26574 2.42044,0.95268 3.88691,0.39404 1.04744,-0.41896 1.7458,-2.33701 1.7458,-3.70104 0,-1.6061 -0.80197,-3.84945 -2.20704,-3.45916 -1.25696,0.34911 -2.72706,1.65594 -3.37947,0.52625 -0.34835,-0.6033 0.1397,-3.39841 0.20952,-5.09765 m -16.62755,-16.63332 c 1.85383,0.0853 4.67868,0.55864 5.56151,0.25572 1.26574,-0.43434 -0.95268,-2.42046 -0.39404,-3.88694 0.41899,-1.04743 2.33701,-1.74577 3.70104,-1.74577 1.60615,0 3.84945,0.802 3.45922,2.20702 -0.34912,1.25696 -1.65598,2.72709 -0.52629,3.37947 0.60328,0.34835 3.39839,-0.13967 5.09763,-0.2095 m -0.11584,16.90661 c 0.0852,-1.85383 0.55867,-4.67865 0.25569,-5.56154 -0.43431,-1.26574 -2.4204,0.95269 -3.88691,0.39407 -1.04743,-0.41897 -1.7458,-2.33704 -1.7458,-3.70107 0,-1.6061 0.802,-3.84942 2.20707,-3.45916 1.25693,0.34912 2.72704,1.65597 3.37945,0.52628 0.34835,-0.60333 -0.1397,-3.39844 -0.2095,-5.09767 m 16.59385,33.52487 c 0.0852,-1.85382 0.55867,-4.67865 0.25569,-5.56151 -0.43431,-1.26574 -2.42043,0.95268 -3.88691,0.39404 -1.04744,-0.41896 -1.7458,-2.33701 -1.7458,-3.70104 0,-1.6061 0.802,-3.84945 2.20707,-3.45916 1.25693,0.34911 2.72703,1.65594 3.37944,0.52625 0.34835,-0.6033 -0.1397,-3.39841 -0.20949,-5.09765 m -33.42495,0.16627 c 1.85383,-0.0853 4.67866,-0.55867 5.56152,-0.25575 1.26574,0.43432 -0.95269,2.42046 -0.39405,3.88697 0.41897,1.04743 2.33702,1.74575 3.70105,1.74575 1.6061,0 3.84942,-0.80198 3.45916,-2.20705 -0.34912,-1.25696 -1.65597,-2.72706 -0.52626,-3.37942 0.60331,-0.3484 3.39842,0.13965 5.09765,0.2095" />
</svg>
