<?xml version="1.0" encoding="UTF-8" standalone="no"?>
<svg viewBox="14 11.5 46 46.3" width="200px" xmlns="http://www.w3.org/2000/svg" version="1.0" height="200px">
 <path stroke-linejoin="round" d="m27.356 54.021c1.0832-0.04934 2.7338-0.32331 3.2497-0.148 0.73959 0.25134-0.55667 1.4007-0.23025 2.2494 0.24482 0.60615 1.3656 1.0103 2.1626 1.0103 0.93847 0 2.2493-0.46411 2.0212-1.2772-0.20398-0.72741-0.96759-1.5782-0.30751-1.9557 0.35252-0.20162 1.9858 0.08081 2.9786 0.12124m-19.57-9.621c1.0832-0.04937 2.7338-0.32331 3.2497-0.148 0.73959 0.25134-0.55667 1.4007-0.23025 2.2494 0.24479 0.60615 1.3655 1.0103 2.1626 1.0103 0.93847 0 2.2493-0.46411 2.0212-1.2772-0.20398-0.72741-0.96759-1.5782-0.3075-1.9557 0.35252-0.20162 1.9858 0.08081 2.9786 0.12124m9.6563 9.6833c0.04982-1.0728 0.32645-2.7075 0.14941-3.2185-0.25378-0.73249-1.4143 0.55133-2.2712 0.22804-0.61202-0.24244-1.0201-1.3524-1.0201-2.1418 0-0.92946 0.46864-2.2277 1.2896-2.0018 0.73446 0.20205 1.5935 0.95833 1.9747 0.30455 0.20355-0.34914-0.08163-1.9667-0.12241-2.95m-9.696 0.15816c0.0498-1.0728 0.32645-2.7075 0.14941-3.2185-0.25378-0.73249-1.4143 0.55132-2.2712 0.22804-0.61202-0.24244-1.0201-1.3524-1.0201-2.1418 0-0.92946 0.46861-2.2277 1.2896-2.0018 0.73446 0.20202 1.5935 0.9583 1.9747 0.30455 0.20355-0.34914-0.08163-1.9667-0.12241-2.95m-9.8067-0.0044c1.0832 0.04934 2.7338 0.32331 3.2497 0.148 0.73956-0.25137-0.55667-1.4008-0.23025-2.2494 0.24482-0.60615 1.3655-1.0103 2.1626-1.0103 0.93847 0 2.2492 0.46411 2.0213 1.2772-0.20401 0.72741-0.96762 1.5782-0.3075 1.9557 0.3525 0.20159 1.9857-0.08081 2.9786-0.12124m-0.157 19.406c-0.04982-1.0728-0.32645-2.7075-0.14941-3.2185 0.25378-0.73249 1.4143 0.55133 2.2712 0.22804 0.61203-0.24244 1.0201-1.3524 1.0201-2.1418 0-0.92946-0.46864-2.2277-1.2896-2.0018-0.73444 0.20205-1.5934 0.95833-1.9747 0.30455-0.20352-0.34914 0.08163-1.9667 0.12244-2.95m-9.696 0.15816c-0.0498-1.0728-0.32642-2.7075-0.14941-3.2185 0.25378-0.73249 1.4143 0.55132 2.2712 0.22804 0.61205-0.24244 1.0201-1.3524 1.0201-2.1418 0-0.92946-0.46861-2.2277-1.2896-2.0018-0.73444 0.20202-1.5935 0.9583-1.9747 0.30455-0.20355-0.34914 0.08163-1.9667 0.12241-2.95m9.8631 19.348c-1.0832 0.04932-2.7338 0.32331-3.2497 0.14798-0.73959-0.25134 0.55667-1.4007 0.23025-2.2494-0.24479-0.60615-1.3655-1.0103-2.1626-1.0103-0.93847 0-2.2493 0.46411-2.0212 1.2772 0.20398 0.72741 0.96759 1.5782 0.30751 1.9557-0.35252 0.20159-1.9858-0.08085-2.9786-0.12124m-0.0044-9.7125c0.04982 1.0728 0.32645 2.7076 0.14944 3.2185-0.2538 0.73246-1.4143-0.55132-2.2712-0.22804-0.61203 0.24247-1.0201 1.3524-1.0201 2.1418 0 0.92946 0.46861 2.2277 1.2896 2.0018 0.73446-0.20205 1.5935-0.95833 1.9747-0.30455 0.20355 0.34911-0.08159 1.9666-0.12241 2.95m9.5119-9.6885c1.0832 0.04932 2.7338 0.32328 3.2496 0.14798 0.73959-0.25134-0.55664-1.4007-0.23025-2.2494 0.24482-0.60615 1.3656-1.0103 2.1626-1.0103 0.93847 0 2.2493 0.46411 2.0213 1.2772-0.20401 0.72739-0.96762 1.5782-0.3075 1.9557 0.35252 0.20159 1.9857-0.08085 2.9786-0.12124m0.0044-9.7125c-0.04982 1.0728-0.32642 2.7076-0.14941 3.2184 0.25378 0.73249 1.4143-0.5513 2.2712-0.22804 0.61202 0.2425 1.02 1.3525 1.02 2.1418 0 0.92949-0.46861 2.2277-1.2896 2.0018-0.73444-0.20202-1.5935-0.9583-1.9747-0.30453-0.20355 0.34911 0.08159 1.9666 0.12241 2.95m-9.879-9.76c1.0832-0.04932 2.7338-0.32329 3.2496-0.14798 0.73959 0.25134-0.55664 1.4007-0.23025 2.2494 0.24482 0.60618 1.3656 1.0103 2.1626 1.0103 0.93847 0 2.2493-0.46411 2.0213-1.2772-0.20401-0.72739-0.96762-1.5782-0.3075-1.9557 0.35252-0.20159 1.9857 0.08085 2.9786 0.12124m-19.468-9.7207c1.0832-0.04934 2.7338-0.32329 3.2497-0.14798 0.73959 0.25134-0.55667 1.4007-0.23025 2.2494 0.24482 0.60615 1.3656 1.0103 2.1626 1.0103 0.93847 0 2.2493-0.46411 2.0212-1.2772-0.20398-0.72738-0.96759-1.5782-0.30751-1.9557 0.35252-0.20159 1.9858 0.08081 2.9786 0.12124m9.6563 9.6834c0.04982-1.0728 0.32645-2.7075 0.14941-3.2185-0.25378-0.73249-1.4143 0.55132-2.2712 0.22804-0.61203-0.24244-1.0201-1.3525-1.0201-2.1418 0-0.92946 0.46861-2.2277 1.2896-2.0018 0.73444 0.20202 1.5935 0.9583 1.9747 0.30455 0.20352-0.34914-0.08162-1.9667-0.12244-2.95m-9.696 0.15816c0.04982-1.0728 0.32644-2.7076 0.14941-3.2185-0.25378-0.73249-1.4143 0.55132-2.2712 0.22804-0.61202-0.24247-1.0201-1.3525-1.0201-2.1418 0-0.92946 0.46864-2.2277 1.2896-2.0018 0.73446 0.20202 1.5935 0.9583 1.9747 0.30455 0.20355-0.34914-0.08163-1.9667-0.12241-2.95m-9.8067-0.0044c1.0832 0.04934 2.7338 0.32328 3.2497 0.148 0.73959-0.25137-0.55667-1.4008-0.23025-2.2494 0.24482-0.60618 1.3655-1.0103 2.1626-1.0103 0.93847 0 2.2493 0.46411 2.0213 1.2772-0.20401 0.72739-0.96762 1.5782-0.30751 1.9557 0.3525 0.20159 1.9857-0.08081 2.9786-0.12124m-0.15866 19.405c-0.04982-1.0728-0.32644-2.7075-0.14941-3.2185 0.25378-0.73249 1.4143 0.55132 2.2712 0.22804 0.61202-0.24244 1.0201-1.3525 1.0201-2.1418 0-0.92946-0.46861-2.2277-1.2896-2.0018-0.73446 0.20202-1.5935 0.9583-1.9747 0.30455-0.20355-0.34914 0.08163-1.9667 0.12241-2.95m-9.696 0.15816c-0.04982-1.0728-0.32645-2.7076-0.14941-3.2185 0.25378-0.73249 1.4143 0.55132 2.2712 0.22804 0.61203-0.24247 1.0201-1.3525 1.0201-2.1418 0-0.92946-0.46864-2.2277-1.2896-2.0018-0.73444 0.20202-1.5934 0.9583-1.9747 0.30455-0.20352-0.34914 0.08163-1.9667 0.12244-2.95m-0.01571 9.6356c0.04982 1.0728 0.32645 2.7076 0.14944 3.2185-0.2538 0.73249-1.4143-0.5513-2.2712-0.22804-0.61202 0.2425-1.0201 1.3525-1.0201 2.1418 0 0.92949 0.46861 2.2277 1.2896 2.0018 0.73446-0.20202 1.5935-0.9583 1.9747-0.30453 0.20355 0.34911-0.08159 1.9666-0.12241 2.95m9.5119-9.6884c1.0832 0.04932 2.7338 0.32328 3.2497 0.14798 0.73956-0.25134-0.55667-1.4007-0.23028-2.2494 0.24482-0.60618 1.3656-1.0103 2.1626-1.0103 0.93844 0 2.2492 0.46411 2.0212 1.2772-0.20401 0.72739-0.96762 1.5782-0.3075 1.9557 0.35252 0.20159 1.9857-0.08084 2.9786-0.12124m0.0044-9.7125c-0.04985 1.0728-0.32644 2.7076-0.14944 3.2185 0.2538 0.73249 1.4143-0.55132 2.2712-0.22804 0.61203 0.24247 1.0201 1.3525 1.0201 2.1418 0 0.92949-0.46861 2.2277-1.2896 2.0018-0.73444-0.20202-1.5935-0.9583-1.9747-0.30455-0.20352 0.34911 0.08162 1.9667 0.12244 2.95m-9.8788-9.7601c1.0832-0.04932 2.7338-0.32331 3.2497-0.14798 0.73956 0.25134-0.55667 1.4007-0.23028 2.2494 0.24482 0.60615 1.3656 1.0103 2.1626 1.0103 0.93844 0 2.2492-0.46411 2.0212-1.2772-0.20401-0.72741-0.96762-1.5782-0.30751-1.9557 0.35252-0.20159 1.9857 0.08085 2.9786 0.12124m9.4325 0.0066c1.0832-0.04932 2.7338-0.32328 3.2497-0.14798 0.73959 0.25134-0.55667 1.4007-0.23025 2.2494 0.24482 0.60618 1.3656 1.0103 2.1626 1.0103 0.93847 0 2.2493-0.46411 2.0212-1.2772-0.20398-0.72739-0.96759-1.5782-0.3075-1.9557 0.35255-0.20159 1.9858 0.08084 2.9786 0.12124m0.0044-0.01948c-0.04982 1.0728-0.32642 2.7076-0.14944 3.2185 0.2538 0.73246 1.4143-0.55132 2.2712-0.22804 0.61205 0.24247 1.0201 1.3524 1.0201 2.1418 0 0.92946-0.46861 2.2277-1.2896 2.0018-0.73444-0.20205-1.5935-0.95833-1.9747-0.30455-0.20355 0.34911 0.08159 1.9666 0.12241 2.95m-9.8788-0.06705c1.0832 0.04932 2.7338 0.32331 3.2497 0.14798 0.73959-0.25134-0.55667-1.4007-0.23025-2.2494 0.24482-0.60615 1.3656-1.0103 2.1626-1.0103 0.93847 0 2.2493 0.46412 2.0212 1.2772-0.20398 0.72741-0.96759 1.5782-0.3075 1.9557 0.35255 0.20159 1.9858-0.08085 2.9786-0.12124m-9.6745 9.6742c-0.0498-1.0728-0.32642-2.7075-0.14941-3.2185 0.25378-0.73247 1.4143 0.55132 2.2712 0.22806 0.61205-0.24247 1.0201-1.3525 1.0201-2.1418 0-0.92944-0.46861-2.2277-1.2896-2.0018-0.73444 0.20205-1.5935 0.95833-1.9747 0.30455-0.20355-0.34914 0.08162-1.9667 0.12241-2.95m-9.7158-9.6258c1.0832 0.04934 2.7338 0.32331 3.2497 0.148 0.73957-0.25137-0.55667-1.4007-0.23028-2.2494 0.24485-0.60615 1.3656-1.0103 2.1626-1.0103 0.9385 0 2.2493 0.46411 2.0213 1.2772-0.20401 0.72741-0.96762 1.5782-0.3075 1.9557 0.3525 0.20159 1.9857-0.08081 2.9786-0.12124m-0.06768 9.7839c0.0498-1.0728 0.32645-2.7075 0.14941-3.2185-0.25378-0.73249-1.4143 0.55132-2.2712 0.22804-0.61202-0.24244-1.0201-1.3524-1.0201-2.1418 0-0.92946 0.46861-2.2277 1.2896-2.0018 0.73446 0.20205 1.5935 0.95833 1.9747 0.30455 0.20355-0.34914-0.08162-1.9667-0.12241-2.95m9.696 19.401c0.0498-1.0728 0.32645-2.7075 0.14941-3.2185-0.25378-0.73246-1.4143 0.55132-2.2712 0.22807-0.61202-0.24247-1.0201-1.3525-1.0201-2.1418 0-0.92944 0.46861-2.2277 1.2896-2.0018 0.73446 0.20205 1.5935 0.95833 1.9747 0.30455 0.20355-0.34914-0.08163-1.9667-0.12241-2.95m-19.525 0.096c1.0832-0.04934 2.7338-0.32331 3.2497-0.148 0.73959 0.25134-0.55667 1.4007-0.23025 2.2494 0.24479 0.60615 1.3655 1.0103 2.1626 1.0103 0.93847 0 2.2493-0.46411 2.0212-1.2772-0.20401-0.72741-0.96762-1.5782-0.3075-1.9557 0.35252-0.20162 1.9857 0.08081 2.9786 0.12124m-0.28045 9.7207c1.0832-0.04934 2.7338-0.32331 3.2497-0.14798 0.73959 0.25134-0.55667 1.4007-0.23025 2.2494 0.24482 0.60615 1.3656 1.0103 2.1626 1.0103 0.93847 0 2.2493-0.46414 2.0212-1.2772-0.20398-0.72741-0.96759-1.5782-0.3075-1.9557 0.35252-0.20157 1.9858 0.08087 2.9786 0.12126m0.0044-0.01951c-0.04982 1.0728-0.32642 2.7076-0.14944 3.2185 0.2538 0.73249 1.4143-0.55132 2.2712-0.22804 0.61202 0.24247 1.0201 1.3524 1.0201 2.1418 0 0.92946-0.46861 2.2277-1.2896 2.0018-0.73444-0.20205-1.5935-0.95833-1.9747-0.30455-0.20355 0.34911 0.08159 1.9667 0.12241 2.95m-9.8788-0.06705c1.0832 0.04934 2.7338 0.32331 3.2497 0.14798 0.73959-0.25134-0.55667-1.4007-0.23025-2.2494 0.24482-0.60615 1.3656-1.0103 2.1626-1.0103 0.93847 0 2.2493 0.46414 2.0212 1.2772-0.20398 0.72741-0.96759 1.5782-0.3075 1.9557 0.35252 0.20157 1.9858-0.08087 2.9786-0.12126m-9.5074 9.6214c-1.0832 0.04932-2.7338 0.32329-3.2497 0.14795-0.73959-0.25131 0.55667-1.4007 0.23025-2.2494-0.24482-0.60615-1.3656-1.0103-2.1626-1.0103-0.93847 0-2.2493 0.46411-2.0212 1.2772 0.20398 0.72739 0.96759 1.5782 0.30748 1.9557-0.35252 0.20159-1.9857-0.08085-2.9786-0.12124m9.7073 0.05281c-0.0498-1.0728-0.32642-2.7076-0.14941-3.2185 0.25378-0.73249 1.4143 0.5513 2.2712 0.22804 0.61205-0.24247 1.0201-1.3525 1.0201-2.1418 0-0.92946-0.46861-2.2277-1.2896-2.0018-0.73444 0.20202-1.5935 0.9583-1.9747 0.30453-0.20355-0.34914 0.08162-1.9667 0.12241-2.95m-9.7157-9.6258c1.0832 0.04937 2.7338 0.32331 3.2497 0.148 0.73959-0.25137-0.55664-1.4007-0.23025-2.2494 0.24485-0.60615 1.3656-1.0103 2.1626-1.0103 0.9385 0 2.2493 0.46411 2.0213 1.2772-0.20398 0.72739-0.96759 1.5782-0.3075 1.9557 0.35252 0.20157 1.9857-0.08085 2.9786-0.12126m-0.06768 9.7839c0.0498-1.0728 0.32642-2.7075 0.14941-3.2185-0.25378-0.73246-1.4143 0.55132-2.2712 0.22807-0.61203-0.24247-1.0201-1.3525-1.0201-2.1418 0-0.92944 0.46861-2.2277 1.2896-2.0018 0.73443 0.20205 1.5935 0.95833 1.9747 0.30455 0.20355-0.34914-0.08162-1.9667-0.12241-2.95m9.696 19.401c0.0498-1.0728 0.32645-2.7076 0.14941-3.2185-0.25378-0.73249-1.4143 0.5513-2.2712 0.22804-0.61203-0.24247-1.0201-1.3525-1.0201-2.1418 0-0.92946 0.46861-2.2277 1.2896-2.0018 0.73446 0.20202 1.5935 0.9583 1.9747 0.30453 0.20355-0.34914-0.08163-1.9667-0.12241-2.95m-19.531 0.09622c1.0832-0.04934 2.7338-0.32328 3.2497-0.148 0.73956 0.25134-0.55667 1.4008-0.23025 2.2494 0.24479 0.60615 1.3655 1.0103 2.1626 1.0103 0.93844 0 2.2492-0.46411 2.0212-1.2772-0.20401-0.72739-0.96762-1.5782-0.3075-1.9557 0.35252-0.20162 1.9857 0.08081 2.9786 0.12124m-0.17836 9.6214c1.0832-0.04934 2.7338-0.32328 3.2497-0.148 0.73959 0.25134-0.55667 1.4008-0.23025 2.2494 0.24479 0.60618 1.3655 1.0103 2.1626 1.0103 0.93847 0 2.2493-0.46411 2.0212-1.2772-0.20401-0.72738-0.96762-1.5782-0.3075-1.9557 0.35252-0.20162 1.9857 0.08081 2.9786 0.12124" stroke="#fff" stroke-linecap="round" stroke-width=".81014" fill="none"/>
</svg>
