<svg version="1.0" xmlns="http://www.w3.org/2000/svg" width="200px" height="200px" viewBox="14 11.5 46 46.3">
  <path d="m 27.356483,54.021025 c 1.083215,-0.04934 2.733789,-0.323312 3.249672,-0.148004 0.739592,0.25134 -0.556668,1.400726 -0.230249,2.249401 0.24482,0.60615 1.365564,1.010277 2.162576,1.010277 0.938472,0 2.249275,-0.464113 2.021225,-1.277232 -0.203982,-0.727412 -0.967589,-1.578157 -0.307506,-1.955678 0.352525,-0.20162 1.985759,0.08081 2.978638,0.121236 M 17.660491,44.399617 c 1.083214,-0.04937 2.733789,-0.323312 3.249672,-0.148003 0.739591,0.25134 -0.556668,1.400725 -0.230249,2.2494 0.244793,0.60615 1.365539,1.010277 2.162576,1.010277 0.938472,0 2.249277,-0.464113 2.021225,-1.277231 -0.20398,-0.727413 -0.967587,-1.578157 -0.307505,-1.955678 0.352524,-0.201621 1.985759,0.08081 2.978637,0.121235 m 9.656265,9.683329 c 0.04982,-1.072817 0.326446,-2.707547 0.149411,-3.218478 -0.253775,-0.732492 -1.414274,0.551326 -2.271175,0.228039 -0.612025,-0.242444 -1.020097,-1.352429 -1.020097,-2.141817 0,-0.929462 0.46864,-2.227684 1.289613,-2.001823 0.734463,0.202051 1.593453,0.958328 1.974659,0.304554 0.203547,-0.349139 -0.08163,-1.966669 -0.122411,-2.950045 m -9.695992,0.158163 c 0.0498,-1.072818 0.326446,-2.707548 0.149412,-3.218477 -0.253776,-0.732493 -1.414274,0.551324 -2.271176,0.228037 -0.612025,-0.242443 -1.020096,-1.352429 -1.020096,-2.141817 0,-0.929462 0.468612,-2.227684 1.289611,-2.001822 0.734464,0.202023 1.593453,0.9583 1.97466,0.304553 0.203547,-0.349139 -0.08163,-1.966696 -0.122411,-2.950045 m -9.806652,-0.0044 c 1.083215,0.04934 2.733816,0.323311 3.249672,0.148003 0.739565,-0.251367 -0.556667,-1.400752 -0.230249,-2.249401 0.244821,-0.60615 1.365537,-1.010276 2.162576,-1.010276 0.938473,0 2.249249,0.464113 2.021253,1.277204 -0.204009,0.727413 -0.967616,1.578185 -0.307505,1.955705 0.352497,0.201594 1.985704,-0.08081 2.978609,-0.121235 M 27.40416,54.082899 c -0.04982,-1.072817 -0.326446,-2.707547 -0.14941,-3.218478 0.253776,-0.732492 1.414274,0.551326 2.271174,0.228039 0.612027,-0.242444 1.020097,-1.352429 1.020097,-2.141817 0,-0.929462 -0.468639,-2.227684 -1.289638,-2.001823 -0.734436,0.20205 -1.593425,0.958327 -1.97466,0.304554 -0.203521,-0.34914 0.08163,-1.966669 0.122437,-2.950045 m -9.696018,0.158163 c -0.0498,-1.072818 -0.326419,-2.707548 -0.149412,-3.218477 0.253777,-0.732493 1.414302,0.551324 2.271176,0.228037 0.612052,-0.242443 1.020096,-1.352429 1.020096,-2.141817 0,-0.929462 -0.468611,-2.227684 -1.289611,-2.001822 -0.734436,0.202023 -1.593453,0.9583 -1.974659,0.304553 -0.203548,-0.349139 0.08163,-1.966696 0.12241,-2.950045 m 9.863068,19.348168 c -1.083214,0.04932 -2.733789,0.323312 -3.249672,0.147976 -0.739591,-0.25134 0.556668,-1.400698 0.23025,-2.249373 -0.244794,-0.606151 -1.365539,-1.010304 -2.162578,-1.010304 -0.938471,0 -2.249276,0.464113 -2.021225,1.277231 0.203982,0.727413 0.967589,1.578157 0.307506,1.955706 -0.352524,0.201593 -1.985759,-0.08085 -2.978638,-0.121236 m -0.0044,-9.712515 c 0.04982,1.072816 0.326446,2.707572 0.149438,3.218477 -0.253802,0.732465 -1.414328,-0.551325 -2.271202,-0.228039 -0.612026,0.24247 -1.02007,1.352429 -1.02007,2.141817 0,0.929463 0.468613,2.227657 1.289585,2.00185 0.734463,-0.202051 1.59348,-0.958328 1.97466,-0.304554 0.203547,0.349113 -0.08159,1.966643 -0.122411,2.950018 m 9.511874,-9.688462 c 1.083215,0.04932 2.733789,0.323285 3.249644,0.147977 0.739592,-0.25134 -0.556639,-1.400726 -0.230248,-2.249373 0.244821,-0.60615 1.365564,-1.010305 2.162576,-1.010305 0.938471,0 2.249276,0.464113 2.021252,1.277232 -0.204008,0.727386 -0.967615,1.578158 -0.307505,1.955705 0.352524,0.201593 1.985731,-0.08085 2.978611,-0.121236 m 0.0044,-9.712515 c -0.04982,1.072816 -0.326419,2.707574 -0.149412,3.21845 0.253776,0.732492 1.414303,-0.551297 2.271203,-0.228039 0.612025,0.242498 1.020042,1.352457 1.020042,2.141817 0,0.92949 -0.468611,2.227686 -1.289584,2.00185 -0.734436,-0.202023 -1.593479,-0.9583 -1.97466,-0.304527 -0.203547,0.349114 0.08159,1.966644 0.122411,2.949991 M 27.20433,34.715709 c 1.083215,-0.04932 2.733789,-0.323287 3.249644,-0.147977 0.739593,0.251339 -0.556639,1.400724 -0.230248,2.249373 0.244821,0.606177 1.365564,1.010304 2.162576,1.010304 0.938471,0 2.249277,-0.464114 2.021253,-1.277232 -0.204009,-0.727386 -0.967616,-1.578157 -0.307505,-1.955704 0.352524,-0.201593 1.985729,0.08085 2.978609,0.121236 m -19.468262,-9.72067 c 1.083216,-0.04934 2.733789,-0.323287 3.249672,-0.147977 0.739591,0.25134 -0.556668,1.400725 -0.230249,2.249399 0.244821,0.606151 1.365565,1.010251 2.162576,1.010251 0.938471,0 2.249276,-0.464112 2.021225,-1.277232 -0.203981,-0.727385 -0.967588,-1.578157 -0.307506,-1.955677 0.352525,-0.201593 1.985759,0.08081 2.978638,0.121236 m 9.656266,9.683355 c 0.04982,-1.072816 0.326446,-2.707547 0.149409,-3.218477 -0.253775,-0.732492 -1.414273,0.551324 -2.271173,0.228039 -0.612026,-0.242444 -1.02007,-1.352458 -1.02007,-2.141818 0,-0.929463 0.468612,-2.227685 1.289611,-2.001823 0.734436,0.202024 1.593453,0.958301 1.974659,0.304554 0.20352,-0.34914 -0.08162,-1.966697 -0.122436,-2.950045 m -9.695992,0.158162 c 0.04982,-1.072816 0.326445,-2.707573 0.149411,-3.218477 -0.253776,-0.732492 -1.414275,0.551324 -2.271176,0.228039 -0.612025,-0.242471 -1.020096,-1.352456 -1.020096,-2.141817 0,-0.929464 0.468639,-2.227685 1.289611,-2.001823 0.734464,0.202023 1.593453,0.9583 1.974661,0.304553 0.203547,-0.34914 -0.08163,-1.966697 -0.122411,-2.950045 m -9.806652,-0.0044 c 1.083214,0.04934 2.733816,0.323285 3.249671,0.148003 0.739592,-0.251366 -0.556667,-1.400752 -0.230249,-2.2494 0.24482,-0.606177 1.365537,-1.010278 2.162576,-1.010278 0.938472,0 2.249276,0.464114 2.021253,1.277206 -0.204009,0.727386 -0.967617,1.578183 -0.307506,1.955704 0.352498,0.201593 1.985732,-0.08081 2.978611,-0.121235 m -0.158665,19.405389 c -0.04982,-1.072816 -0.326445,-2.707547 -0.149411,-3.218477 0.253776,-0.732492 1.414275,0.551324 2.271176,0.228039 0.612025,-0.242444 1.020096,-1.352458 1.020096,-2.141818 0,-0.929463 -0.468611,-2.227685 -1.289611,-2.001823 -0.734463,0.202024 -1.593453,0.958301 -1.974661,0.304554 -0.203547,-0.34914 0.08163,-1.966697 0.122411,-2.950045 m -9.695992,0.158162 c -0.04982,-1.072816 -0.326446,-2.707573 -0.149409,-3.218477 0.253775,-0.732492 1.414273,0.551324 2.271173,0.228039 0.612026,-0.242471 1.020098,-1.352456 1.020098,-2.141817 0,-0.929464 -0.46864,-2.227685 -1.289639,-2.001823 -0.734436,0.202023 -1.593426,0.9583 -1.974659,0.304553 -0.20352,-0.34914 0.08163,-1.966697 0.122436,-2.950045 m -0.01571,9.635625 c 0.04982,1.072817 0.326446,2.707601 0.149438,3.218477 -0.253803,0.732493 -1.414301,-0.551297 -2.271202,-0.228038 -0.612025,0.242497 -1.02007,1.352456 -1.02007,2.141817 0,0.929489 0.468612,2.227685 1.289585,2.00185 0.734462,-0.202024 1.593479,-0.958301 1.974659,-0.304527 0.203547,0.349113 -0.08159,1.966643 -0.12241,2.949992 m 9.511873,-9.688436 c 1.083215,0.04932 2.73379,0.323285 3.249673,0.147977 0.739564,-0.25134 -0.556668,-1.400725 -0.230277,-2.249374 0.244821,-0.606177 1.365565,-1.010304 2.162604,-1.010304 0.938445,0 2.249249,0.464114 2.021225,1.277232 -0.204008,0.727386 -0.967616,1.578157 -0.307505,1.955704 0.352524,0.201594 1.985732,-0.08084 2.97861,-0.121235 m 0.0044,-9.712543 c -0.04985,1.072817 -0.326445,2.707574 -0.149437,3.218477 0.253802,0.732493 1.414301,-0.551324 2.271202,-0.228038 0.612026,0.242471 1.020069,1.352456 1.020069,2.141818 0,0.92949 -0.468612,2.227684 -1.289611,2.001849 -0.734436,-0.202023 -1.593453,-0.9583 -1.974659,-0.304553 -0.203521,0.349112 0.08162,1.966669 0.122436,2.950018 m -9.878753,-9.760059 c 1.083215,-0.04932 2.733791,-0.323312 3.249673,-0.147977 0.739565,0.25134 -0.556668,1.400725 -0.230276,2.249374 0.24482,0.60615 1.365565,1.010304 2.162604,1.010304 0.938444,0 2.249248,-0.464113 2.021225,-1.277232 -0.204009,-0.727413 -0.967616,-1.578157 -0.307506,-1.955705 0.352524,-0.201593 1.985732,0.08085 2.978611,0.121236 m 9.432473,0.0066 c 1.083216,-0.04932 2.733817,-0.323285 3.249672,-0.147976 0.739591,0.25134 -0.556668,1.400725 -0.230249,2.249372 0.244822,0.606178 1.365565,1.010305 2.162578,1.010305 0.93847,0 2.249275,-0.464113 2.021223,-1.277231 -0.20398,-0.727387 -0.967587,-1.578159 -0.307505,-1.955706 0.352551,-0.201593 1.985759,0.08084 2.978639,0.121236 m 0.0044,-0.01948 c -0.04982,1.072817 -0.32642,2.707574 -0.149438,3.218477 0.253803,0.732465 1.414329,-0.551324 2.271201,-0.228038 0.612053,0.242471 1.02007,1.352429 1.02007,2.141817 0,0.929462 -0.468611,2.227658 -1.289584,2.00185 -0.734436,-0.20205 -1.59348,-0.958327 -1.97466,-0.304554 -0.203547,0.349113 0.08159,1.966643 0.122411,2.950018 m -9.878753,-0.06705 c 1.083215,0.04932 2.733817,0.323313 3.249671,0.147977 0.739592,-0.251339 -0.556667,-1.400698 -0.230249,-2.249373 0.244822,-0.60615 1.365566,-1.010305 2.162578,-1.010305 0.938471,0 2.249276,0.464115 2.021224,1.277233 -0.203981,0.727413 -0.967588,1.578157 -0.307505,1.955704 0.352551,0.201593 1.985759,-0.08085 2.978638,-0.121236 m -9.674527,9.674219 c -0.0498,-1.072818 -0.326419,-2.707548 -0.149411,-3.218477 0.253775,-0.732466 1.4143,0.551324 2.271175,0.228065 0.612052,-0.242471 1.020097,-1.352457 1.020097,-2.141845 0,-0.929435 -0.468614,-2.227657 -1.289613,-2.001822 -0.734436,0.20205 -1.593453,0.958327 -1.974659,0.304554 -0.203547,-0.34914 0.08162,-1.96667 0.122411,-2.950046 m -9.71576,-9.625798 c 1.083215,0.04934 2.733817,0.323313 3.249671,0.148003 0.739566,-0.251367 -0.556667,-1.400724 -0.230275,-2.249399 0.244848,-0.606151 1.365565,-1.010278 2.162577,-1.010278 0.938498,0 2.249276,0.464114 2.021279,1.277205 -0.204008,0.727413 -0.967615,1.578184 -0.307505,1.955704 0.352496,0.201594 1.985703,-0.08081 2.978583,-0.121235 m -0.06768,9.783924 c 0.0498,-1.072816 0.326446,-2.707547 0.149411,-3.218477 -0.253775,-0.732492 -1.4143,0.551324 -2.271175,0.228039 -0.612025,-0.242444 -1.020097,-1.352431 -1.020097,-2.141818 0,-0.929463 0.468613,-2.227685 1.289612,-2.001823 0.734464,0.202051 1.593453,0.958328 1.97466,0.304554 0.203547,-0.34914 -0.08162,-1.966697 -0.122411,-2.950045 m 9.695992,19.400977 c 0.0498,-1.072817 0.326447,-2.707547 0.14941,-3.218477 -0.253776,-0.732465 -1.414274,0.551325 -2.271173,0.228066 -0.612025,-0.242472 -1.020098,-1.352457 -1.020098,-2.141845 0,-0.929435 0.468612,-2.227657 1.289612,-2.001822 0.734462,0.202049 1.593454,0.958326 1.97466,0.304554 0.203547,-0.349141 -0.08163,-1.96667 -0.122411,-2.950046 M 36.9172,25.001647 c 1.083216,-0.04934 2.73379,-0.323313 3.249673,-0.148003 0.739591,0.251338 -0.556668,1.400724 -0.230249,2.249399 0.244794,0.60615 1.365537,1.010278 2.162576,1.010278 0.938471,0 2.249275,-0.464114 2.021225,-1.277233 -0.204008,-0.727412 -0.967615,-1.578157 -0.307505,-1.955677 0.352524,-0.20162 1.985732,0.08081 2.978637,0.121236 m -0.28045,9.720658 c 1.083215,-0.04934 2.733788,-0.323312 3.249671,-0.147976 0.739592,0.251339 -0.556667,1.400698 -0.230249,2.249373 0.244822,0.60615 1.365566,1.010305 2.162576,1.010305 0.938473,0 2.249278,-0.464141 2.021225,-1.277233 -0.20398,-0.727413 -0.967587,-1.578157 -0.307504,-1.95573 0.352524,-0.201567 1.985758,0.08087 2.978636,0.121261 m 0.0044,-0.01951 c -0.04982,1.072816 -0.326419,2.707573 -0.149437,3.218477 0.253802,0.732492 1.414327,-0.551324 2.2712,-0.228039 0.612025,0.24247 1.02007,1.352429 1.02007,2.141817 0,0.929463 -0.468611,2.227684 -1.289585,2.00185 -0.734435,-0.202051 -1.59348,-0.958328 -1.974659,-0.304554 -0.203547,0.349114 0.08159,1.96667 0.122411,2.950018 m -9.878753,-0.06705 c 1.083215,0.04934 2.733789,0.323312 3.249672,0.147977 0.739591,-0.251341 -0.556668,-1.400699 -0.230249,-2.249374 0.244822,-0.606151 1.365565,-1.010304 2.162576,-1.010304 0.938472,0 2.249277,0.46414 2.021225,1.277232 -0.20398,0.727412 -0.967587,1.578156 -0.307505,1.955731 0.352524,0.201567 1.985759,-0.08087 2.978637,-0.121262 m -9.50745,9.621434 c -1.083215,0.04932 -2.733816,0.323286 -3.249671,0.14795 -0.739593,-0.251313 0.556667,-1.400698 0.230248,-2.249373 -0.244821,-0.606151 -1.365565,-1.010277 -2.162577,-1.010277 -0.938471,0 -2.249275,0.464113 -2.021224,1.277231 0.203981,0.727386 0.967588,1.578157 0.307477,1.955705 -0.352523,0.201593 -1.98573,-0.08085 -2.97861,-0.121236 m 9.707281,0.05281 c -0.0498,-1.072817 -0.32642,-2.707574 -0.149411,-3.218478 0.253775,-0.732492 1.414301,0.551297 2.271175,0.228039 0.612052,-0.242471 1.020096,-1.352456 1.020096,-2.141817 0,-0.929464 -0.468612,-2.227685 -1.289611,-2.001823 -0.734436,0.202023 -1.593453,0.9583 -1.97466,0.304526 -0.203546,-0.34914 0.08162,-1.96667 0.122411,-2.950018 m -9.715693,-9.625788 c 1.083216,0.04937 2.733844,0.323312 3.249671,0.148004 0.739592,-0.251367 -0.55664,-1.400725 -0.230249,-2.249401 0.24485,-0.60615 1.365567,-1.010276 2.162577,-1.010276 0.938499,0 2.249277,0.464112 2.021252,1.277231 -0.20398,0.727386 -0.967587,1.578157 -0.307504,1.955705 0.352523,0.201566 1.985731,-0.08085 2.97861,-0.121263 m -0.06768,9.783924 c 0.0498,-1.072817 0.326419,-2.707547 0.14941,-3.218478 -0.253776,-0.732465 -1.414301,0.551324 -2.271173,0.228066 -0.612026,-0.242471 -1.020098,-1.352456 -1.020098,-2.141844 0,-0.929435 0.468612,-2.227657 1.289613,-2.001823 0.734434,0.202051 1.593452,0.958328 1.974658,0.304554 0.203548,-0.349141 -0.08162,-1.966669 -0.12241,-2.950018 m 9.695991,19.400978 c 0.0498,-1.072817 0.326447,-2.707574 0.149411,-3.218478 -0.253776,-0.732492 -1.414301,0.551297 -2.271174,0.228039 -0.612026,-0.242471 -1.020096,-1.352456 -1.020096,-2.141817 0,-0.929464 0.468611,-2.227685 1.28961,-2.001823 0.734463,0.202023 1.593453,0.9583 1.97466,0.304526 0.203547,-0.34914 -0.08163,-1.96667 -0.122411,-2.950018 m -19.530621,0.09622 c 1.083216,-0.04934 2.73379,-0.323285 3.249673,-0.148003 0.739564,0.25134 -0.556668,1.400752 -0.230249,2.2494 0.244793,0.606151 1.365537,1.010277 2.162576,1.010277 0.938443,0 2.249248,-0.464113 2.021225,-1.277231 -0.204009,-0.727386 -0.967616,-1.578158 -0.307505,-1.955679 0.352523,-0.201619 1.98573,0.08081 2.978637,0.121236 m -0.178365,9.621408 c 1.083215,-0.04934 2.733789,-0.323285 3.249672,-0.148003 0.739592,0.25134 -0.556668,1.400752 -0.230249,2.249399 0.244794,0.606178 1.365538,1.010278 2.162576,1.010278 0.938472,0 2.249277,-0.464113 2.021225,-1.277232 -0.204008,-0.727385 -0.967615,-1.578157 -0.307504,-1.955678 0.352523,-0.201619 1.98573,0.08081 2.978638,0.121236"
     style="fill:none;stroke:#fff;stroke-width:0.81013638;stroke-linecap:round;stroke-linejoin:round;stroke-dasharray:none"/>
</svg>
