<svg xmlns="http://www.w3.org/2000/svg" width="200" height="200" viewBox="14 11.5 46 46.3"><path d="M27.356 54.021c1.084-.05 2.734-.323 3.25-.148.74.251-.557 1.4-.23 2.25.245.606 1.365 1.01 2.162 1.01.939 0 2.25-.464 2.022-1.278-.204-.727-.968-1.578-.308-1.955.353-.202 1.986.08 2.979.121M17.66 44.4c1.083-.05 2.733-.324 3.25-.148.739.251-.558 1.4-.231 2.249.245.606 1.365 1.01 2.162 1.01.939 0 2.25-.464 2.022-1.277-.204-.727-.968-1.578-.308-1.956.353-.201 1.986.081 2.979.122m9.656 9.683c.05-1.073.327-2.708.15-3.219-.254-.732-1.415.552-2.272.229-.612-.243-1.02-1.353-1.02-2.142 0-.93.469-2.228 1.29-2.002.734.202 1.593.958 1.975.304.203-.349-.082-1.966-.123-2.95m-9.696.159c.05-1.073.327-2.708.15-3.219-.254-.732-1.415.551-2.272.228-.612-.242-1.02-1.352-1.02-2.142 0-.93.469-2.227 1.29-2.002.734.202 1.593.959 1.975.305.203-.35-.082-1.967-.123-2.95m-9.807-.004c1.084.049 2.734.323 3.25.148.74-.252-.557-1.401-.23-2.25.245-.606 1.365-1.01 2.162-1.01.939 0 2.25.464 2.022 1.277-.204.728-.968 1.578-.308 1.956.353.201 1.986-.081 2.979-.121m-.159 19.405c-.05-1.073-.326-2.708-.15-3.219.255-.732 1.415.552 2.272.228.612-.242 1.02-1.352 1.02-2.141 0-.93-.469-2.228-1.29-2.002-.734.202-1.593.958-1.974.304-.204-.349.081-1.966.122-2.95m-9.696.158c-.05-1.072-.326-2.707-.15-3.218.255-.732 1.415.551 2.272.228.612-.242 1.02-1.352 1.02-2.142 0-.93-.469-2.227-1.29-2.002-.734.202-1.593.959-1.974.305-.204-.35.081-1.967.122-2.95m9.863 19.348c-1.083.05-2.734.323-3.25.148-.74-.251.557-1.4.23-2.25-.244-.605-1.365-1.01-2.162-1.01-.938 0-2.25.465-2.021 1.278.204.727.968 1.578.307 1.955-.352.202-1.985-.08-2.978-.12m-.005-9.713c.05 1.072.327 2.707.15 3.218-.254.733-1.414-.551-2.271-.228-.612.242-1.02 1.352-1.02 2.142 0 .93.468 2.227 1.29 2.002.734-.202 1.593-.959 1.974-.305.203.35-.082 1.967-.123 2.95m9.512-9.688c1.084.049 2.734.323 3.25.148.74-.252-.557-1.401-.23-2.25.245-.606 1.365-1.01 2.162-1.01.939 0 2.25.464 2.022 1.277-.204.728-.968 1.578-.308 1.956.353.202 1.986-.08 2.979-.121m.004-9.713c-.05 1.073-.326 2.708-.15 3.219.254.732 1.415-.552 2.272-.228.612.242 1.02 1.352 1.02 2.141 0 .93-.469 2.228-1.29 2.002-.734-.202-1.593-.958-1.974-.304-.204.349.081 1.966.122 2.95m-9.879-9.76c1.084-.05 2.734-.324 3.25-.148.74.251-.557 1.4-.23 2.25.245.605 1.365 1.01 2.162 1.01.939 0 2.25-.465 2.022-1.278-.204-.727-.968-1.578-.308-1.956.353-.201 1.986.081 2.979.122M17.61 24.995c1.084-.05 2.734-.323 3.25-.148.74.251-.557 1.4-.23 2.25.245.606 1.365 1.01 2.162 1.01.939 0 2.25-.464 2.022-1.278-.204-.727-.968-1.578-.308-1.955.353-.202 1.986.08 2.979.121m9.656 9.683c.05-1.072.326-2.707.15-3.218-.254-.733-1.415.551-2.272.228-.612-.242-1.02-1.353-1.02-2.142 0-.93.469-2.228 1.29-2.002.734.202 1.593.959 1.974.305.204-.35-.081-1.967-.122-2.95m-9.696.158c.05-1.073.326-2.708.15-3.218-.254-.733-1.415.55-2.272.228-.612-.243-1.02-1.353-1.02-2.142 0-.93.469-2.228 1.29-2.002.734.202 1.593.958 1.974.304.204-.349-.081-1.966-.122-2.95m-9.807-.004c1.084.05 2.734.323 3.25.148.74-.251-.557-1.4-.23-2.25.245-.606 1.365-1.01 2.162-1.01.939 0 2.25.464 2.022 1.278-.204.727-.968 1.578-.308 1.955.353.202 1.986-.08 2.979-.121m-.159 19.405c-.05-1.072-.326-2.707-.15-3.218.254-.733 1.415.551 2.272.228.612-.242 1.02-1.352 1.02-2.142 0-.93-.469-2.228-1.29-2.002-.734.202-1.593.959-1.974.305-.204-.35.081-1.967.122-2.95m-9.696.158c-.05-1.073-.326-2.708-.15-3.218.254-.733 1.415.55 2.272.228.612-.243 1.02-1.353 1.02-2.142 0-.93-.469-2.228-1.29-2.002-.734.202-1.593.958-1.974.304-.204-.349.081-1.966.122-2.95m-.016 9.636c.05 1.073.327 2.708.15 3.219-.254.732-1.414-.552-2.271-.229-.612.243-1.02 1.353-1.02 2.142 0 .93.468 2.228 1.29 2.002.734-.202 1.593-.958 1.974-.304.203.349-.082 1.966-.123 2.95m9.512-9.689c1.083.05 2.734.323 3.25.148.74-.251-.557-1.4-.23-2.25.244-.605 1.365-1.01 2.162-1.01.939 0 2.25.465 2.021 1.278-.204.727-.967 1.578-.307 1.955.352.202 1.986-.08 2.979-.12m.004-9.713c-.05 1.072-.326 2.707-.15 3.218.254.733 1.415-.551 2.272-.228.612.243 1.02 1.353 1.02 2.142 0 .93-.469 2.228-1.29 2.002-.734-.202-1.593-.959-1.974-.305-.204.35.081 1.967.122 2.95m-9.879-9.76c1.083-.05 2.734-.323 3.25-.148.74.252-.557 1.4-.23 2.25.244.606 1.365 1.01 2.162 1.01.939 0 2.25-.464 2.021-1.277-.204-.728-.967-1.579-.307-1.956.352-.202 1.986.08 2.979.121m9.432.007c1.083-.05 2.734-.324 3.25-.148.74.251-.557 1.4-.23 2.25.244.605 1.365 1.01 2.162 1.01.938 0 2.25-.465 2.021-1.278-.204-.727-.967-1.578-.307-1.955.352-.202 1.985.08 2.978.12m.005-.019c-.05 1.073-.327 2.708-.15 3.219.254.732 1.415-.552 2.272-.228.612.242 1.02 1.352 1.02 2.142 0 .929-.469 2.227-1.29 2.001-.734-.202-1.593-.958-1.975-.304-.203.349.082 1.966.123 2.95m-9.879-.067c1.083.05 2.734.323 3.25.148.74-.252-.557-1.4-.23-2.25.244-.606 1.365-1.01 2.162-1.01.938 0 2.25.464 2.021 1.277-.204.728-.967 1.578-.307 1.956.352.202 1.986-.08 2.978-.121m-9.674 9.674c-.05-1.073-.327-2.708-.15-3.218.254-.733 1.415.55 2.272.228.612-.243 1.02-1.353 1.02-2.142 0-.93-.469-2.228-1.29-2.002-.734.202-1.593.958-1.975.304-.203-.349.082-1.966.123-2.95m-9.716-9.625c1.083.049 2.734.323 3.25.148.74-.252-.557-1.401-.23-2.25.244-.606 1.365-1.01 2.162-1.01.939 0 2.25.464 2.021 1.277-.204.728-.967 1.578-.307 1.956.352.201 1.986-.08 2.978-.121m-.067 9.784c.05-1.073.326-2.708.15-3.219-.255-.732-1.415.551-2.272.228-.612-.242-1.02-1.352-1.02-2.142 0-.93.468-2.227 1.29-2.002.734.203 1.593.959 1.974.305.204-.35-.081-1.967-.122-2.95m9.696 19.401c.05-1.073.326-2.708.15-3.218-.255-.733-1.415.55-2.272.228-.612-.243-1.02-1.353-1.02-2.142 0-.93.468-2.228 1.29-2.002.734.202 1.593.958 1.974.304.204-.349-.081-1.966-.122-2.95m-19.53.097c1.082-.05 2.733-.324 3.249-.148.74.251-.557 1.4-.23 2.249.244.606 1.365 1.01 2.162 1.01.939 0 2.25-.464 2.021-1.277-.204-.727-.967-1.578-.307-1.956.352-.201 1.986.081 2.979.122m-.28 9.72c1.082-.049 2.733-.323 3.249-.148.74.252-.557 1.401-.23 2.25.244.606 1.365 1.01 2.162 1.01.939 0 2.25-.464 2.021-1.277-.204-.728-.967-1.578-.307-1.956.352-.202 1.986.08 2.978.121m.005-.02c-.05 1.074-.327 2.708-.15 3.22.254.732 1.415-.552 2.272-.229.612.243 1.02 1.353 1.02 2.142 0 .93-.469 2.228-1.29 2.002-.734-.202-1.593-.958-1.975-.305-.203.35.082 1.967.123 2.95m-9.879-.067c1.083.05 2.734.324 3.25.148.74-.251-.557-1.4-.23-2.25.244-.605 1.365-1.01 2.162-1.01.939 0 2.25.465 2.021 1.278-.204.727-.967 1.578-.307 1.956.352.201 1.986-.081 2.978-.122m-9.507 9.622c-1.083.05-2.734.323-3.25.148-.74-.252.557-1.401.23-2.25-.244-.606-1.365-1.01-2.162-1.01-.938 0-2.25.464-2.021 1.277.204.728.967 1.578.307 1.956-.352.202-1.985-.08-2.978-.121m9.707.053c-.05-1.073-.326-2.708-.15-3.219.254-.732 1.415.551 2.272.228.612-.242 1.02-1.352 1.02-2.142 0-.93-.469-2.227-1.29-2.002-.734.203-1.593.959-1.974.305-.204-.35.081-1.967.122-2.95m-9.716-9.626c1.083.05 2.734.324 3.25.148.74-.251-.557-1.4-.23-2.25.245-.605 1.365-1.01 2.162-1.01.939 0 2.25.465 2.021 1.278-.203.727-.967 1.578-.307 1.955.353.202 1.986-.08 2.979-.12m-.068 9.783c.05-1.073.326-2.707.15-3.218-.254-.733-1.415.551-2.272.228-.612-.243-1.02-1.353-1.02-2.142 0-.93.469-2.228 1.29-2.002.734.202 1.593.958 1.974.305.204-.35-.081-1.967-.122-2.95m9.696 19.4c.05-1.072.326-2.707.15-3.218-.254-.732-1.415.551-2.272.228-.612-.242-1.02-1.352-1.02-2.142 0-.93.469-2.227 1.29-2.002.734.203 1.593.959 1.974.305.204-.35-.081-1.967-.122-2.95m-19.53.096c1.083-.05 2.733-.323 3.249-.148.74.252-.557 1.401-.23 2.25.245.606 1.365 1.01 2.162 1.01.939 0 2.25-.464 2.022-1.277-.204-.728-.968-1.579-.308-1.956.353-.202 1.986.08 2.979.121m-.179 9.622c1.084-.05 2.734-.324 3.25-.148.74.251-.557 1.4-.23 2.249.245.606 1.365 1.01 2.162 1.01.939 0 2.25-.464 2.022-1.277-.204-.727-.968-1.578-.308-1.956.353-.201 1.986.081 2.979.122" fill="none" stroke="#fff" stroke-width=".81" stroke-linecap="round" stroke-linejoin="round" stroke-dasharray="none"/></svg>