<svg version="1.0" xmlns="http://www.w3.org/2000/svg" width="250px" height="250px" viewBox="0 0 250 250" stroke="#fff"  fill="none" stroke-width="10" stroke-linecap="round">
    <defs>
        <linearGradient id="grad1" x1="0%" y1="0%" x2="0%" y2="100%">
            <stop offset="0%" style="stop-color:#6633FE;stop-opacity:1" />
            <stop offset="100%" style="stop-color:#AA90FF;stop-opacity:1" />
        </linearGradient>
    </defs>
    <rect x="0" y="0" width="250" height="250" rx="40" ry="40" stroke="none" fill="url(#grad1)"/>
    <g transform="translate(244,47) rotate(108)">
        <g id="oben">
            <path d="m47,24c33,-8 48.7,-9 49.55,1.5c0.37,6.58 -11.2,9 -10.6,22.6c0.6,13.65 18.83,16.56 26.4,16"/>
            <path d="m47,24c33,-8 48.7,-9 49.55,1.5c0.37,6.58 -11.2,9 -10.6,22.6c0.6,13.65 18.83,16.56 26.4,16" transform="translate(223) scale(-1,1)"/>
        </g>
        <g id="unten" transform="translate(0,179) scale(1,-1)">
            <path d="m47,24c33,-8 48.7,-9 49.55,1.5c0.37,6.58 -11.2,9 -10.6,22.6c0.6,13.65 18.83,16.56 26.4,16"/>
            <path d="m47,24c33,-8 48.7,-9 49.55,1.5c0.37,6.58 -11.2,9 -10.6,22.6c0.6,13.65 18.83,16.56 26.4,16" transform="translate(223) scale(-1,1)"/>
        </g>
        <g id="links" transform="translate(70,-22) rotate(90)">
            <path d="m47,24c33,-8 48.7,-9 49.55,1.5c0.37,6.58 -11.2,9 -10.6,22.6c0.6,13.65 18.83,16.56 26.4,16"/>
            <path d="m47,24c33,-8 48.7,-9 49.55,1.5c0.37,6.58 -11.2,9 -10.6,22.6c0.6,13.65 18.83,16.56 26.4,16" transform="translate(223) scale(-1,1)"/>
        </g>
        <g id="rechts" transform="translate(152,-22) rotate(90) scale(1,-1)">
            <path d="m47,24c33,-8 48.7,-9 49.55,1.5c0.37,6.58 -11.2,9 -10.6,22.6c0.6,13.65 18.83,16.56 26.4,16"/>
            <path d="m47,24c33,-8 48.7,-9 49.55,1.5c0.37,6.58 -11.2,9 -10.6,22.6c0.6,13.65 18.83,16.56 26.4,16" transform="translate(223) scale(-1,1)"/>
        </g>
    </g>
</svg>
