<svg version="1.0" xmlns="http://www.w3.org/2000/svg" width="222px" height="222px" viewBox="0 -18 222 204" stroke="#fff" fill="none" stroke-width="10" stroke-linecap="round">
    <style>
        svg {animation: spinner 4s infinite;}
        @keyframes spinner {
        0% {transform: rotate(0deg);}
        25% {transform: rotate(90deg);}
        50% {transform: rotate(180deg);}
        75% {transform: rotate(270deg);}
        100% {transform: rotate(360deg);}
        }
    </style>
    <g transform="translate(-10,10) rotate(-6)">
        <g id="oben">
            <path d="m47,24c33,-8 48.7,-9 49.55,1.5c0.37,6.58 -11.2,9 -10.6,22.6c0.6,13.65 18.83,16.56 26.4,16"/>
            <path d="m47,24c33,-8 48.7,-9 49.55,1.5c0.37,6.58 -11.2,9 -10.6,22.6c0.6,13.65 18.83,16.56 26.4,16" transform="translate(223) scale(-1,1)"/>
        </g>
        <g id="unten" transform="translate(0,179) scale(1,-1)">
            <path d="m47,24c33,-8 48.7,-9 49.55,1.5c0.37,6.58 -11.2,9 -10.6,22.6c0.6,13.65 18.83,16.56 26.4,16"/>
            <path d="m47,24c33,-8 48.7,-9 49.55,1.5c0.37,6.58 -11.2,9 -10.6,22.6c0.6,13.65 18.83,16.56 26.4,16" transform="translate(223) scale(-1,1)"/>
        </g>
        <g id="links" transform="translate(70,-22) rotate(90)">
            <path d="m47,24c33,-8 48.7,-9 49.55,1.5c0.37,6.58 -11.2,9 -10.6,22.6c0.6,13.65 18.83,16.56 26.4,16"/>
            <path d="m47,24c33,-8 48.7,-9 49.55,1.5c0.37,6.58 -11.2,9 -10.6,22.6c0.6,13.65 18.83,16.56 26.4,16" transform="translate(223) scale(-1,1)"/>
        </g>
        <g id="rechts" transform="translate(152,-22) rotate(90) scale(1,-1)">
            <path d="m47,24c33,-8 48.7,-9 49.55,1.5c0.37,6.58 -11.2,9 -10.6,22.6c0.6,13.65 18.83,16.56 26.4,16"/>
            <path d="m47,24c33,-8 48.7,-9 49.55,1.5c0.37,6.58 -11.2,9 -10.6,22.6c0.6,13.65 18.83,16.56 26.4,16" transform="translate(223) scale(-1,1)"/>
        </g>
    </g>
</svg>
