<svg xmlns="http://www.w3.org/2000/svg" width="222" height="222" viewBox="0 -18 222 204" stroke="#fff" fill="none" stroke-width="10" stroke-linecap="round" style="animation:spinner 4s infinite"><style>@keyframes spinner{0%{transform:rotate(0deg)}25%{transform:rotate(90deg)}50%{transform:rotate(180deg)}75%{transform:rotate(270deg)}to{transform:rotate(360deg)}}</style><g transform="rotate(-6 90.406 100.406)"><g id="oben"><path d="M47 24c33-8 48.7-9 49.55 1.5.37 6.58-11.2 9-10.6 22.6.6 13.65 18.83 16.56 26.4 16"/><path d="M47 24c33-8 48.7-9 49.55 1.5.37 6.58-11.2 9-10.6 22.6.6 13.65 18.83 16.56 26.4 16" transform="matrix(-1 0 0 1 223 0)"/></g><g id="unten"><path d="M47 24c33-8 48.7-9 49.55 1.5.37 6.58-11.2 9-10.6 22.6.6 13.65 18.83 16.56 26.4 16" transform="matrix(1 0 0 -1 0 179)"/><path d="M47 24c33-8 48.7-9 49.55 1.5.37 6.58-11.2 9-10.6 22.6.6 13.65 18.83 16.56 26.4 16" transform="rotate(180 111.5 89.5)"/></g><g id="links"><path d="M47 24c33-8 48.7-9 49.55 1.5.37 6.58-11.2 9-10.6 22.6.6 13.65 18.83 16.56 26.4 16" transform="rotate(90 46 24)"/><path d="M47 24c33-8 48.7-9 49.55 1.5.37 6.58-11.2 9-10.6 22.6.6 13.65 18.83 16.56 26.4 16" transform="matrix(0 -1 -1 0 70 201)"/></g><g id="rechts"><path d="M47 24c33-8 48.7-9 49.55 1.5.37 6.58-11.2 9-10.6 22.6.6 13.65 18.83 16.56 26.4 16" transform="matrix(0 1 1 0 152 -22)"/><path d="M47 24c33-8 48.7-9 49.55 1.5.37 6.58-11.2 9-10.6 22.6.6 13.65 18.83 16.56 26.4 16" transform="rotate(-90 176.5 24.5)"/></g></g></svg>