<?xml version="1.0" encoding="UTF-8" standalone="no"?>
<svg viewBox="14 11.5 46 46.3" width="200px" xmlns="http://www.w3.org/2000/svg" version="1.0" height="200px">
 <path stroke-linejoin="round" d="m43.051 40.843c1.3683-0.06243 3.4533-0.40896 4.1049-0.18722 0.93425 0.31793-0.70316 1.7718-0.29085 2.8453 0.30926 0.76673 1.725 1.2779 2.7317 1.2779 1.1855 0 2.8413-0.58707 2.5532-1.6156-0.25769-0.9201-1.2223-1.9962-0.38842-2.4738 0.44531-0.25502 2.5084 0.10222 3.7625 0.15337m-0.05018 0.07832c0.06292-1.357 0.41234-3.4248 0.18873-4.0711-0.32055-0.92652-1.7865 0.69739-2.8689 0.28845-0.77313-0.30668-1.2886-1.7107-1.2886-2.7092 0-1.1757 0.59195-2.8178 1.629-2.5322 0.92774 0.25554 2.0128 1.2122 2.4944 0.38522 0.25711-0.44163-0.10313-2.4877-0.15464-3.7316m-12.388-0.0056c1.3683 0.06241 3.4533 0.40894 4.1049 0.1872 0.93425-0.31796-0.70315-1.7718-0.29085-2.8453 0.30928-0.76676 1.725-1.2779 2.7317-1.2779 1.1855 0 2.8413 0.58707 2.5532 1.6156-0.25769 0.9201-1.2223 1.9963-0.38842 2.4738 0.44528 0.25499 2.5083-0.10226 3.7625-0.15337m-0.2004 24.546c-0.06292-1.357-0.41234-3.4248-0.18873-4.0711 0.32058-0.92652 1.7865 0.69738 2.8689 0.28845 0.77313-0.30668 1.2886-1.7107 1.2886-2.7092 0-1.1757-0.59195-2.8178-1.629-2.5322-0.92774 0.25557-2.0128 1.2122-2.4944 0.38525-0.25711-0.44163 0.10313-2.4877 0.15464-3.7316m0.21104 12.304c-1.3683 0.06239-3.4533 0.40896-4.105 0.18717-0.93422-0.31791 0.70318-1.7718 0.29085-2.8453-0.30923-0.76673-1.7249-1.2779-2.7317-1.2779-1.1854 0-2.8412 0.58707-2.5532 1.6156 0.25767 0.9201 1.2223 1.9962 0.38842 2.4738-0.445 0.255-2.508-0.102-3.762-0.154m-0.109-36.727c1.3683-0.06241 3.4533-0.40894 4.105-0.1872 0.93423 0.3179-0.70318 1.7718-0.29085 2.8453 0.30923 0.76676 1.7249 1.2779 2.7317 1.2779 1.1855 0 2.8413-0.58707 2.5532-1.6156-0.25766-0.9201-1.2223-1.9963-0.38842-2.4738 0.4453-0.25504 2.5084 0.10222 3.7626 0.15334m-0.16508 12.249c-0.06294-1.357-0.41236-3.4248-0.18875-4.0711 0.32057-0.92655 1.7865 0.69736 2.8689 0.28845 0.7731-0.30671 1.2886-1.7108 1.2886-2.7092 0-1.1757-0.59195-2.8178-1.629-2.5322-0.92775 0.25557-2.0128 1.2122-2.4944 0.38522-0.25711-0.44163 0.10311-2.4877 0.15464-3.7315m-24.641 0.125c1.3683 0.06239 3.4533 0.40896 4.105 0.1872 0.93423-0.31793-0.70318-1.7718-0.29085-2.8453 0.30923-0.76673 1.7249-1.2779 2.7318-1.2779 1.1854 0 2.8412 0.58707 2.5532 1.6156-0.25766 0.9201-1.2223 1.9962-0.38843 2.4738 0.44531 0.25499 2.5084-0.10225 3.7626-0.15337m-24.488-0.116c0.06294 1.357 0.41234 3.4249 0.18875 4.0711-0.3206 0.92653-1.7865-0.69738-2.8689-0.28848-0.77313 0.30673-1.2885 1.7108-1.2885 2.7092 0 1.1757 0.59195 2.8178 1.629 2.5322 0.92774-0.25557 2.0129-1.2122 2.4944-0.38522 0.25713 0.44161-0.10307 2.4877-0.15462 3.7315m12.268-0.01799c-0.06292-1.357-0.41233-3.4248-0.18872-4.0711 0.32057-0.92653 1.7865 0.69739 2.8689 0.28845 0.77313-0.30668 1.2886-1.7107 1.2886-2.7092 0-1.1757-0.59195-2.8178-1.629-2.5322-0.92775 0.25557-2.0128 1.2122-2.4944 0.38525-0.25711-0.44163 0.10313-2.4877 0.15464-3.7316m12.363 12.37c0.06292-1.357 0.41233-3.4248 0.18872-4.0711-0.32055-0.92653-1.7865 0.69739-2.8689 0.28845-0.77313-0.30668-1.2886-1.7107-1.2886-2.7092 0-1.1757 0.59195-2.8178 1.629-2.5322 0.92774 0.25557 2.0128 1.2122 2.4944 0.38525 0.25711-0.44163-0.10313-2.4877-0.15464-3.7316m-24.671 0.12172c1.3683-0.06245 3.4533-0.40896 4.1049-0.18722 0.93426 0.31793-0.70315 1.7718-0.29084 2.8453 0.30926 0.76673 1.725 1.2779 2.7317 1.2779 1.1855 0 2.8413-0.58707 2.5532-1.6156-0.25769-0.9201-1.2223-1.9962-0.38842-2.4738 0.4453-0.25502 2.5084 0.10222 3.7625 0.15337m-0.35423 12.296c1.3683-0.06239 3.4533-0.40896 4.105-0.18717 0.93423 0.31791-0.70318 1.7718-0.29087 2.8453 0.30926 0.76673 1.725 1.2779 2.7317 1.2779 1.1855 0 2.8413-0.58707 2.5532-1.6156-0.25769-0.9201-1.2223-1.9962-0.38842-2.4738 0.4453-0.25499 2.5084 0.10226 3.7626 0.15337m0.0056-0.02468c-0.06294 1.357-0.41236 3.4249-0.18875 4.0711 0.32057 0.92653 1.7865-0.69739 2.8689-0.28845 0.7731 0.30671 1.2885 1.7107 1.2885 2.7092 0 1.1757-0.59195 2.8178-1.629 2.5322-0.92774-0.25557-2.0129-1.2122-2.4944-0.38525-0.25711 0.44161 0.10307 2.4877 0.15464 3.7315m-12.479-0.08479c1.3683 0.06239 3.4533 0.40894 4.105 0.18717 0.93423-0.31793-0.70318-1.7718-0.29087-2.8453 0.30926-0.76673 1.725-1.2779 2.7317-1.2779 1.1855 0 2.8413 0.58707 2.5532 1.6156-0.25769 0.9201-1.2223 1.9962-0.38842 2.4738 0.4453 0.25501 2.5084-0.10225 3.7626-0.15334m-24.489-0.114c0.06296 1.357 0.41236 3.4249 0.18878 4.0711-0.3206 0.92653-1.7866-0.69739-2.869-0.28845-0.7731 0.30671-1.2885 1.7107-1.2885 2.7092 0 1.1757 0.59195 2.8178 1.629 2.5322 0.92775-0.25554 2.0128-1.2122 2.4944-0.38522 0.25711 0.44161-0.10308 2.4877-0.15464 3.7315m12.479-0.08481c-1.3683 0.06239-3.4533 0.40896-4.1049 0.1872-0.93425-0.31793 0.70316-1.7718 0.29085-2.8453-0.30923-0.76673-1.725-1.2779-2.7318-1.2779-1.1855 0-2.8413 0.58707-2.5532 1.6156 0.25769 0.9201 1.2223 1.9962 0.38845 2.4738-0.44533 0.25499-2.5084-0.10226-3.7626-0.15337m0.01427-12.103c-0.06292-1.357-0.41236-3.4248-0.18873-4.0711 0.32055-0.92652 1.7865 0.69739 2.8689 0.28848 0.7731-0.30671 1.2886-1.7108 1.2886-2.7092 0-1.1757-0.59195-2.8178-1.629-2.5322-0.92774 0.25557-2.0128 1.2122-2.4944 0.38522-0.25711-0.44163 0.10311-2.4877 0.15464-3.7316m12.248 24.541c-0.06292-1.357-0.41236-3.4249-0.18872-4.0711 0.32055-0.92653 1.7865 0.69738 2.8689 0.28845 0.7731-0.30668 1.2886-1.7107 1.2886-2.7092 0-1.1757-0.59195-2.8178-1.629-2.5322-0.92775 0.25554-2.0128 1.2122-2.4944 0.38522-0.25711-0.44163 0.10311-2.4877 0.15464-3.7316m-12.273-12.177c1.3683 0.06241 3.4533 0.40896 4.105 0.18722 0.93423-0.31796-0.70318-1.7718-0.29085-2.8453 0.30926-0.76673 1.7249-1.2779 2.7318-1.2779 1.1855 0 2.8412 0.58707 2.5532 1.6156-0.25769 0.9201-1.2223 1.9963-0.38845 2.4738 0.44528 0.25499 2.5084-0.10223 3.7625-0.15337m-0.0855 12.376c0.06292-1.357 0.41234-3.4248 0.18873-4.0711-0.32058-0.92652-1.7865 0.69739-2.8689 0.28848-0.7731-0.30671-1.2886-1.7108-1.2886-2.7092 0-1.1757 0.59195-2.8178 1.629-2.5322 0.92774 0.25557 2.0128 1.2122 2.4944 0.38522 0.25711-0.44163-0.10311-2.4877-0.15462-3.7316m12.248 24.541c0.06292-1.357 0.41234-3.4249 0.18873-4.0711-0.32058-0.92653-1.7865 0.69738-2.8689 0.28845-0.7731-0.30668-1.2886-1.7107-1.2886-2.7092 0-1.1757 0.59195-2.8178 1.629-2.5322 0.92775 0.25554 2.0128 1.2122 2.4944 0.38522 0.25711-0.44163-0.10311-2.4877-0.15462-3.7316m-24.671 0.12172c1.3683-0.06241 3.4533-0.40896 4.105-0.1872 0.93423 0.31791-0.70318 1.7718-0.29085 2.8453 0.30923 0.76673 1.7249 1.2779 2.7317 1.2779 1.1855 0 2.8413-0.58707 2.5532-1.6156-0.25769-0.9201-1.2223-1.9962-0.38845-2.4738 0.4453-0.25501 2.5084 0.10222 3.7626 0.15337m-0.225 12.169c1.3683-0.06241 3.4533-0.40896 4.1049-0.18722 0.93423 0.31793-0.70315 1.7718-0.29085 2.8453 0.30923 0.76673 1.7249 1.2779 2.7318 1.2779 1.1855 0 2.8413-0.58707 2.5532-1.6156-0.25769-0.9201-1.2223-1.9962-0.38845-2.4738 0.44531-0.25502 2.5084 0.10223 3.7626 0.15337" stroke="#fff" stroke-linecap="round" stroke-width="1.1905" fill="none"/>
</svg>
