<svg version="1.0" xmlns="http://www.w3.org/2000/svg" width="200px" height="200px" viewBox="14 11.5 47 47.3">
  <defs>
    <linearGradient id="grad" x1="0%" y1="0%" x2="40%" y2="100%">
      <stop offset="0%" style="stop-color:#653920;" />
      <stop offset="15%" style="stop-color:#CC9F22;" />
      <stop offset="38%" style="stop-color:#FCF9F3;" />
      <stop offset="70%" style="stop-color:#C7922F;" />
      <stop offset="100%" style="stop-color:#7D452A;" />
    </linearGradient>
  </defs>
  <path transform="translate(0.8 0.8)" d="m 43.051288,40.842678 c 1.368293,-0.06243 3.453287,-0.408961 4.104931,-0.187223 0.934254,0.317932 -0.703155,1.771825 -0.290847,2.845315 0.309257,0.76673 1.72497,1.277921 2.731749,1.277921 1.185465,0 2.841257,-0.587071 2.553198,-1.615612 -0.257692,-0.920098 -1.222257,-1.996223 -0.388425,-2.473767 0.445306,-0.255017 2.508355,0.102224 3.762548,0.153366 m -0.05018,0.07832 c 0.06292,-1.357041 0.412337,-3.424848 0.188728,-4.071121 -0.320548,-0.926524 -1.786499,0.697387 -2.868912,0.28845 -0.77313,-0.30668 -1.288566,-1.710726 -1.288566,-2.709206 0,-1.175693 0.591947,-2.817836 1.629014,-2.532152 0.927744,0.255539 2.01284,1.212182 2.494379,0.385222 0.257108,-0.441634 -0.103132,-2.487706 -0.154643,-3.731558 m -12.387663,-0.0056 c 1.368295,0.06241 3.453317,0.408935 4.104933,0.187196 0.934252,-0.317958 -0.703154,-1.771798 -0.290847,-2.845289 0.309283,-0.766756 1.72497,-1.277919 2.731749,-1.277919 1.185492,0 2.841256,0.587069 2.553225,1.615559 -0.257691,0.920098 -1.222258,1.996277 -0.388423,2.473821 0.445276,0.254988 2.508328,-0.10226 3.762516,-0.153368 m -0.200403,24.546236 c -0.06292,-1.357041 -0.412337,-3.424849 -0.188729,-4.071121 0.320575,-0.926525 1.786499,0.697385 2.868913,0.28845 0.773128,-0.306682 1.288565,-1.710726 1.288565,-2.709234 0,-1.175691 -0.591946,-2.817835 -1.629012,-2.532151 -0.927745,0.255567 -2.012843,1.21221 -2.494381,0.385249 -0.257108,-0.441634 0.103132,-2.487706 0.154644,-3.731558 m 0.21104,12.303549 c -1.368319,0.06239 -3.453315,0.40896 -4.104958,0.18717 -0.934225,-0.317907 0.703182,-1.771773 0.290847,-2.845263 -0.309229,-0.766731 -1.724943,-1.277946 -2.731748,-1.277946 -1.185439,0 -2.841231,0.587068 -2.553174,1.615585 0.257667,0.920098 1.222259,1.99625 0.388425,2.473821 C 46.414479,53.432808 44.3514,53.075559 43.09721,53.024453 M 42.988,16.297457 c 1.368319,-0.06241 3.453314,-0.408935 4.104957,-0.187196 0.934228,0.317904 -0.70318,1.771823 -0.290847,2.845289 0.309232,0.766757 1.724945,1.277919 2.731723,1.277919 1.185465,0 2.841257,-0.587068 2.553198,-1.615585 -0.257665,-0.920097 -1.222256,-1.996251 -0.388424,-2.473768 0.445303,-0.255042 2.508356,0.102224 3.762574,0.153341 m -0.165077,12.248655 c -0.06294,-1.357013 -0.412361,-3.424822 -0.188752,-4.071093 0.320574,-0.926553 1.786524,0.697357 2.868937,0.288449 0.773103,-0.306708 1.288567,-1.710752 1.288567,-2.709231 0,-1.175694 -0.591946,-2.817838 -1.629038,-2.532155 -0.927747,0.255568 -2.012817,1.212184 -2.494357,0.385224 -0.257106,-0.441633 0.103109,-2.487679 0.154643,-3.731532 M 30.655498,16.30066 c 1.368319,0.06239 3.453312,0.408962 4.104955,0.187197 0.934227,-0.317931 -0.703181,-1.771797 -0.290847,-2.845289 0.309232,-0.766731 1.724944,-1.277946 2.73175,-1.277946 1.185439,0 2.841229,0.587068 2.553172,1.615586 -0.257665,0.920096 -1.222258,1.99625 -0.388426,2.47382 0.445306,0.254987 2.508383,-0.102248 3.762575,-0.153368 M 18.640239,16.185417 c 0.06294,1.357014 0.412335,3.424877 0.188752,4.071121 -0.3206,0.926526 -1.786549,-0.697384 -2.868938,-0.288476 -0.773128,0.306734 -1.288538,1.710752 -1.288538,2.709232 0,1.17572 0.591946,2.817835 1.628986,2.53218 0.927744,-0.255568 2.012869,-1.212183 2.494355,-0.385223 0.257132,0.441606 -0.103074,2.487651 -0.154617,3.731531 m 12.26769,-0.01799 c -0.06292,-1.35704 -0.412334,-3.424848 -0.188725,-4.07112 0.320574,-0.926526 1.786497,0.697386 2.86891,0.288452 0.77313,-0.306684 1.288568,-1.710727 1.288568,-2.709235 0,-1.175691 -0.591948,-2.817835 -1.629013,-2.532154 -0.927746,0.255569 -2.012844,1.212211 -2.494382,0.385251 -0.257108,-0.441633 0.103133,-2.487705 0.154642,-3.731558 m 12.362797,12.370366 c 0.06292,-1.35704 0.412334,-3.424848 0.188725,-4.07112 -0.320547,-0.926526 -1.786498,0.697386 -2.86891,0.288452 -0.77313,-0.306684 -1.288568,-1.710727 -1.288568,-2.709235 0,-1.175691 0.591949,-2.817835 1.629014,-2.532153 0.927743,0.255568 2.012841,1.21221 2.49438,0.38525 0.257108,-0.441633 -0.103132,-2.487705 -0.154641,-3.731558 m -24.670867,0.121724 c 1.368291,-0.06245 3.453288,-0.408962 4.104929,-0.187224 0.934255,0.317931 -0.703153,1.771825 -0.290845,2.845316 0.309257,0.76673 1.72497,1.277919 2.731749,1.277919 1.185464,0 2.841257,-0.587068 2.553197,-1.615611 -0.25769,-0.920098 -1.222256,-1.996225 -0.388423,-2.473767 0.445302,-0.255016 2.508355,0.102224 3.762545,0.153367 m -0.354233,12.295827 c 1.368318,-0.06239 3.453315,-0.408961 4.104957,-0.187171 0.934227,0.317908 -0.703182,1.771771 -0.290873,2.845264 0.309257,0.76673 1.724968,1.277945 2.731749,1.277945 1.185463,0 2.841254,-0.587068 2.553198,-1.615586 -0.257693,-0.920096 -1.222256,-1.996249 -0.388425,-2.473819 0.445304,-0.254988 2.508354,0.10226 3.762572,0.153367 m 0.0056,-0.02468 c -0.06294,1.357041 -0.41236,3.424876 -0.18875,4.07112 0.320573,0.926527 1.786523,-0.697386 2.868937,-0.288449 0.773103,0.306707 1.288542,1.710725 1.288542,2.709232 0,1.175718 -0.59195,2.817835 -1.628988,2.532179 -0.927745,-0.255569 -2.012868,-1.212209 -2.494381,-0.385249 -0.257108,0.441607 0.103073,2.487679 0.15464,3.731531 m -12.478755,-0.08479 c 1.368319,0.06239 3.453314,0.408936 4.104956,0.187171 0.934229,-0.317931 -0.703181,-1.771798 -0.290871,-2.84529 0.309256,-0.76673 1.724967,-1.277944 2.731748,-1.277944 1.185464,0 2.841255,0.587067 2.553197,1.615611 -0.257692,0.920097 -1.222257,1.996223 -0.388423,2.473792 0.445304,0.255014 2.508354,-0.102247 3.762572,-0.15334 M 18.703495,40.730599 c 0.06296,1.357039 0.412359,3.424875 0.188778,4.071119 -0.320603,0.926526 -1.786551,-0.697386 -2.868966,-0.288449 -0.773101,0.306707 -1.288539,1.710725 -1.288539,2.709206 0,1.175718 0.591947,2.817834 1.629013,2.532179 0.927746,-0.255542 2.012843,-1.212183 2.494355,-0.385223 0.257108,0.441606 -0.103076,2.487679 -0.154641,3.731531 m 12.47873,-0.08481 c -1.368293,0.06239 -3.453289,0.408964 -4.104931,0.187198 -0.934252,-0.317931 0.703155,-1.771797 0.290848,-2.84529 -0.30923,-0.76673 -1.724973,-1.277944 -2.731751,-1.277944 -1.185463,0 -2.841255,0.587067 -2.553199,1.615612 0.257694,0.920096 1.222261,1.996221 0.388452,2.473792 -0.445329,0.254988 -2.508382,-0.10226 -3.762572,-0.153368 m 0.01427,-12.103492 c -0.06292,-1.357014 -0.412362,-3.424823 -0.188726,-4.071122 0.320546,-0.926525 1.786496,0.697386 2.868911,0.288476 0.773103,-0.306707 1.288566,-1.71075 1.288566,-2.709232 0,-1.175693 -0.591949,-2.817836 -1.629015,-2.532152 -0.927743,0.255569 -2.012841,1.212183 -2.494379,0.385222 -0.257107,-0.441631 0.10311,-2.487679 0.154643,-3.731557 m 12.24787,24.540676 c -0.06292,-1.357041 -0.412361,-3.424852 -0.188725,-4.071122 0.320547,-0.926526 1.786496,0.697384 2.868911,0.288449 0.773103,-0.306681 1.288566,-1.710724 1.288566,-2.709205 0,-1.175693 -0.591948,-2.817835 -1.629013,-2.532154 -0.927747,0.255542 -2.012842,1.212183 -2.494382,0.385224 -0.257106,-0.441633 0.10311,-2.487679 0.154643,-3.731558 M 18.698447,28.536786 c 1.368317,0.06241 3.45334,0.408961 4.104956,0.187223 0.934226,-0.317959 -0.70318,-1.771824 -0.290847,-2.845317 0.309256,-0.766729 1.724943,-1.277917 2.73175,-1.277917 1.18549,0 2.841229,0.587067 2.553224,1.615559 -0.257693,0.920097 -1.222284,1.996275 -0.38845,2.473819 0.445276,0.254987 2.508355,-0.102226 3.762543,-0.153367 m -0.0855,12.375871 c 0.06292,-1.357014 0.412336,-3.424823 0.188727,-4.071122 -0.320575,-0.926525 -1.786523,0.697386 -2.868937,0.288476 -0.773105,-0.306707 -1.288567,-1.71075 -1.288567,-2.709232 0,-1.175693 0.591947,-2.817835 1.629041,-2.532152 0.927743,0.255569 2.012812,1.212183 2.494351,0.385222 0.257109,-0.441631 -0.103109,-2.487679 -0.154615,-3.731557 m 12.247871,24.540676 c 0.06292,-1.357041 0.412335,-3.424852 0.188727,-4.071122 -0.320575,-0.926526 -1.786524,0.697384 -2.868938,0.288449 -0.773103,-0.306681 -1.288568,-1.710724 -1.288568,-2.709205 0,-1.175693 0.59195,-2.817835 1.629039,-2.532154 0.927748,0.255542 2.012817,1.212183 2.494356,0.385224 0.257108,-0.441633 -0.10311,-2.487679 -0.154616,-3.731558 m -24.670896,0.121724 c 1.368318,-0.06241 3.453312,-0.408962 4.104955,-0.187197 0.934227,0.317906 -0.703181,1.771798 -0.290847,2.84529 0.309232,0.766731 1.724946,1.277919 2.731749,1.277919 1.185465,0 2.841257,-0.587068 2.5532,-1.615586 -0.257692,-0.920097 -1.222285,-1.99625 -0.388452,-2.473793 0.445303,-0.255014 2.508381,0.102225 3.762573,0.153367 M 30.911,53.004636 c 1.368293,-0.06241 3.453288,-0.408962 4.104929,-0.187224 0.934227,0.317933 -0.703152,1.771824 -0.290846,2.845317 0.309231,0.76673 1.724942,1.277919 2.731751,1.277919 1.185464,0 2.841255,-0.587068 2.553196,-1.615611 -0.257691,-0.920098 -1.222282,-1.996224 -0.388452,-2.473768 0.445306,-0.255016 2.508384,0.102226 3.762574,0.153367"
     style="fill:none;stroke:#000;stroke-width:1.19054198;stroke-linecap:round;stroke-linejoin:round;stroke-dasharray:none"/>
  <path d="m 43.051288,40.842678 c 1.368293,-0.06243 3.453287,-0.408961 4.104931,-0.187223 0.934254,0.317932 -0.703155,1.771825 -0.290847,2.845315 0.309257,0.76673 1.72497,1.277921 2.731749,1.277921 1.185465,0 2.841257,-0.587071 2.553198,-1.615612 -0.257692,-0.920098 -1.222257,-1.996223 -0.388425,-2.473767 0.445306,-0.255017 2.508355,0.102224 3.762548,0.153366 m -0.05018,0.07832 c 0.06292,-1.357041 0.412337,-3.424848 0.188728,-4.071121 -0.320548,-0.926524 -1.786499,0.697387 -2.868912,0.28845 -0.77313,-0.30668 -1.288566,-1.710726 -1.288566,-2.709206 0,-1.175693 0.591947,-2.817836 1.629014,-2.532152 0.927744,0.255539 2.01284,1.212182 2.494379,0.385222 0.257108,-0.441634 -0.103132,-2.487706 -0.154643,-3.731558 m -12.387663,-0.0056 c 1.368295,0.06241 3.453317,0.408935 4.104933,0.187196 0.934252,-0.317958 -0.703154,-1.771798 -0.290847,-2.845289 0.309283,-0.766756 1.72497,-1.277919 2.731749,-1.277919 1.185492,0 2.841256,0.587069 2.553225,1.615559 -0.257691,0.920098 -1.222258,1.996277 -0.388423,2.473821 0.445276,0.254988 2.508328,-0.10226 3.762516,-0.153368 m -0.200403,24.546236 c -0.06292,-1.357041 -0.412337,-3.424849 -0.188729,-4.071121 0.320575,-0.926525 1.786499,0.697385 2.868913,0.28845 0.773128,-0.306682 1.288565,-1.710726 1.288565,-2.709234 0,-1.175691 -0.591946,-2.817835 -1.629012,-2.532151 -0.927745,0.255567 -2.012843,1.21221 -2.494381,0.385249 -0.257108,-0.441634 0.103132,-2.487706 0.154644,-3.731558 m 0.21104,12.303549 c -1.368319,0.06239 -3.453315,0.40896 -4.104958,0.18717 -0.934225,-0.317907 0.703182,-1.771773 0.290847,-2.845263 -0.309229,-0.766731 -1.724943,-1.277946 -2.731748,-1.277946 -1.185439,0 -2.841231,0.587068 -2.553174,1.615585 0.257667,0.920098 1.222259,1.99625 0.388425,2.473821 C 46.414479,53.432808 44.3514,53.075559 43.09721,53.024453 M 42.988,16.297457 c 1.368319,-0.06241 3.453314,-0.408935 4.104957,-0.187196 0.934228,0.317904 -0.70318,1.771823 -0.290847,2.845289 0.309232,0.766757 1.724945,1.277919 2.731723,1.277919 1.185465,0 2.841257,-0.587068 2.553198,-1.615585 -0.257665,-0.920097 -1.222256,-1.996251 -0.388424,-2.473768 0.445303,-0.255042 2.508356,0.102224 3.762574,0.153341 m -0.165077,12.248655 c -0.06294,-1.357013 -0.412361,-3.424822 -0.188752,-4.071093 0.320574,-0.926553 1.786524,0.697357 2.868937,0.288449 0.773103,-0.306708 1.288567,-1.710752 1.288567,-2.709231 0,-1.175694 -0.591946,-2.817838 -1.629038,-2.532155 -0.927747,0.255568 -2.012817,1.212184 -2.494357,0.385224 -0.257106,-0.441633 0.103109,-2.487679 0.154643,-3.731532 M 30.655498,16.30066 c 1.368319,0.06239 3.453312,0.408962 4.104955,0.187197 0.934227,-0.317931 -0.703181,-1.771797 -0.290847,-2.845289 0.309232,-0.766731 1.724944,-1.277946 2.73175,-1.277946 1.185439,0 2.841229,0.587068 2.553172,1.615586 -0.257665,0.920096 -1.222258,1.99625 -0.388426,2.47382 0.445306,0.254987 2.508383,-0.102248 3.762575,-0.153368 M 18.640239,16.185417 c 0.06294,1.357014 0.412335,3.424877 0.188752,4.071121 -0.3206,0.926526 -1.786549,-0.697384 -2.868938,-0.288476 -0.773128,0.306734 -1.288538,1.710752 -1.288538,2.709232 0,1.17572 0.591946,2.817835 1.628986,2.53218 0.927744,-0.255568 2.012869,-1.212183 2.494355,-0.385223 0.257132,0.441606 -0.103074,2.487651 -0.154617,3.731531 m 12.26769,-0.01799 c -0.06292,-1.35704 -0.412334,-3.424848 -0.188725,-4.07112 0.320574,-0.926526 1.786497,0.697386 2.86891,0.288452 0.77313,-0.306684 1.288568,-1.710727 1.288568,-2.709235 0,-1.175691 -0.591948,-2.817835 -1.629013,-2.532154 -0.927746,0.255569 -2.012844,1.212211 -2.494382,0.385251 -0.257108,-0.441633 0.103133,-2.487705 0.154642,-3.731558 m 12.362797,12.370366 c 0.06292,-1.35704 0.412334,-3.424848 0.188725,-4.07112 -0.320547,-0.926526 -1.786498,0.697386 -2.86891,0.288452 -0.77313,-0.306684 -1.288568,-1.710727 -1.288568,-2.709235 0,-1.175691 0.591949,-2.817835 1.629014,-2.532153 0.927743,0.255568 2.012841,1.21221 2.49438,0.38525 0.257108,-0.441633 -0.103132,-2.487705 -0.154641,-3.731558 m -24.670867,0.121724 c 1.368291,-0.06245 3.453288,-0.408962 4.104929,-0.187224 0.934255,0.317931 -0.703153,1.771825 -0.290845,2.845316 0.309257,0.76673 1.72497,1.277919 2.731749,1.277919 1.185464,0 2.841257,-0.587068 2.553197,-1.615611 -0.25769,-0.920098 -1.222256,-1.996225 -0.388423,-2.473767 0.445302,-0.255016 2.508355,0.102224 3.762545,0.153367 m -0.354233,12.295827 c 1.368318,-0.06239 3.453315,-0.408961 4.104957,-0.187171 0.934227,0.317908 -0.703182,1.771771 -0.290873,2.845264 0.309257,0.76673 1.724968,1.277945 2.731749,1.277945 1.185463,0 2.841254,-0.587068 2.553198,-1.615586 -0.257693,-0.920096 -1.222256,-1.996249 -0.388425,-2.473819 0.445304,-0.254988 2.508354,0.10226 3.762572,0.153367 m 0.0056,-0.02468 c -0.06294,1.357041 -0.41236,3.424876 -0.18875,4.07112 0.320573,0.926527 1.786523,-0.697386 2.868937,-0.288449 0.773103,0.306707 1.288542,1.710725 1.288542,2.709232 0,1.175718 -0.59195,2.817835 -1.628988,2.532179 -0.927745,-0.255569 -2.012868,-1.212209 -2.494381,-0.385249 -0.257108,0.441607 0.103073,2.487679 0.15464,3.731531 m -12.478755,-0.08479 c 1.368319,0.06239 3.453314,0.408936 4.104956,0.187171 0.934229,-0.317931 -0.703181,-1.771798 -0.290871,-2.84529 0.309256,-0.76673 1.724967,-1.277944 2.731748,-1.277944 1.185464,0 2.841255,0.587067 2.553197,1.615611 -0.257692,0.920097 -1.222257,1.996223 -0.388423,2.473792 0.445304,0.255014 2.508354,-0.102247 3.762572,-0.15334 M 18.703495,40.730599 c 0.06296,1.357039 0.412359,3.424875 0.188778,4.071119 -0.320603,0.926526 -1.786551,-0.697386 -2.868966,-0.288449 -0.773101,0.306707 -1.288539,1.710725 -1.288539,2.709206 0,1.175718 0.591947,2.817834 1.629013,2.532179 0.927746,-0.255542 2.012843,-1.212183 2.494355,-0.385223 0.257108,0.441606 -0.103076,2.487679 -0.154641,3.731531 m 12.47873,-0.08481 c -1.368293,0.06239 -3.453289,0.408964 -4.104931,0.187198 -0.934252,-0.317931 0.703155,-1.771797 0.290848,-2.84529 -0.30923,-0.76673 -1.724973,-1.277944 -2.731751,-1.277944 -1.185463,0 -2.841255,0.587067 -2.553199,1.615612 0.257694,0.920096 1.222261,1.996221 0.388452,2.473792 -0.445329,0.254988 -2.508382,-0.10226 -3.762572,-0.153368 m 0.01427,-12.103492 c -0.06292,-1.357014 -0.412362,-3.424823 -0.188726,-4.071122 0.320546,-0.926525 1.786496,0.697386 2.868911,0.288476 0.773103,-0.306707 1.288566,-1.71075 1.288566,-2.709232 0,-1.175693 -0.591949,-2.817836 -1.629015,-2.532152 -0.927743,0.255569 -2.012841,1.212183 -2.494379,0.385222 -0.257107,-0.441631 0.10311,-2.487679 0.154643,-3.731557 m 12.24787,24.540676 c -0.06292,-1.357041 -0.412361,-3.424852 -0.188725,-4.071122 0.320547,-0.926526 1.786496,0.697384 2.868911,0.288449 0.773103,-0.306681 1.288566,-1.710724 1.288566,-2.709205 0,-1.175693 -0.591948,-2.817835 -1.629013,-2.532154 -0.927747,0.255542 -2.012842,1.212183 -2.494382,0.385224 -0.257106,-0.441633 0.10311,-2.487679 0.154643,-3.731558 M 18.698447,28.536786 c 1.368317,0.06241 3.45334,0.408961 4.104956,0.187223 0.934226,-0.317959 -0.70318,-1.771824 -0.290847,-2.845317 0.309256,-0.766729 1.724943,-1.277917 2.73175,-1.277917 1.18549,0 2.841229,0.587067 2.553224,1.615559 -0.257693,0.920097 -1.222284,1.996275 -0.38845,2.473819 0.445276,0.254987 2.508355,-0.102226 3.762543,-0.153367 m -0.0855,12.375871 c 0.06292,-1.357014 0.412336,-3.424823 0.188727,-4.071122 -0.320575,-0.926525 -1.786523,0.697386 -2.868937,0.288476 -0.773105,-0.306707 -1.288567,-1.71075 -1.288567,-2.709232 0,-1.175693 0.591947,-2.817835 1.629041,-2.532152 0.927743,0.255569 2.012812,1.212183 2.494351,0.385222 0.257109,-0.441631 -0.103109,-2.487679 -0.154615,-3.731557 m 12.247871,24.540676 c 0.06292,-1.357041 0.412335,-3.424852 0.188727,-4.071122 -0.320575,-0.926526 -1.786524,0.697384 -2.868938,0.288449 -0.773103,-0.306681 -1.288568,-1.710724 -1.288568,-2.709205 0,-1.175693 0.59195,-2.817835 1.629039,-2.532154 0.927748,0.255542 2.012817,1.212183 2.494356,0.385224 0.257108,-0.441633 -0.10311,-2.487679 -0.154616,-3.731558 m -24.670896,0.121724 c 1.368318,-0.06241 3.453312,-0.408962 4.104955,-0.187197 0.934227,0.317906 -0.703181,1.771798 -0.290847,2.84529 0.309232,0.766731 1.724946,1.277919 2.731749,1.277919 1.185465,0 2.841257,-0.587068 2.5532,-1.615586 -0.257692,-0.920097 -1.222285,-1.99625 -0.388452,-2.473793 0.445303,-0.255014 2.508381,0.102225 3.762573,0.153367 M 30.911,53.004636 c 1.368293,-0.06241 3.453288,-0.408962 4.104929,-0.187224 0.934227,0.317933 -0.703152,1.771824 -0.290846,2.845317 0.309231,0.76673 1.724942,1.277919 2.731751,1.277919 1.185464,0 2.841255,-0.587068 2.553196,-1.615611 -0.257691,-0.920098 -1.222282,-1.996224 -0.388452,-2.473768 0.445306,-0.255016 2.508384,0.102226 3.762574,0.153367"
     style="fill:none;stroke:url(#grad);stroke-width:1.19054198;stroke-linecap:round;stroke-linejoin:round;stroke-dasharray:none"/>
</svg>
