<svg xmlns="http://www.w3.org/2000/svg" width="200" height="200" viewBox="14 11.5 47 47.3"><defs><linearGradient id="a" x1="0%" y1="0%" x2="40%" y2="100%"><stop offset="0%" stop-color="#653920"/><stop offset="15%" stop-color="#cc9f22"/><stop offset="38%" stop-color="#fcf9f3"/><stop offset="70%" stop-color="#c7922f"/><stop offset="100%" stop-color="#7d452a"/></linearGradient></defs><path d="M43.051 40.843c1.369-.063 3.454-.41 4.105-.188.934.318-.703 1.772-.29 2.846.309.766 1.724 1.278 2.731 1.278 1.186 0 2.841-.587 2.553-1.616-.257-.92-1.222-1.996-.388-2.474.445-.255 2.508.103 3.762.154m-.05.078c.063-1.357.413-3.425.189-4.071-.32-.927-1.787.697-2.869.288-.773-.306-1.288-1.71-1.288-2.709 0-1.176.591-2.818 1.629-2.532.927.256 2.012 1.212 2.494.385.257-.441-.103-2.488-.155-3.731m-12.387-.006c1.368.062 3.453.409 4.105.187.934-.318-.704-1.772-.291-2.845.309-.767 1.725-1.278 2.731-1.278 1.186 0 2.842.587 2.554 1.616-.258.92-1.223 1.996-.389 2.473.446.255 2.509-.102 3.763-.153m-.2 24.546c-.064-1.357-.413-3.425-.19-4.07.321-.927 1.787.697 2.87.288.773-.307 1.288-1.711 1.288-2.71 0-1.175-.592-2.817-1.629-2.532-.928.256-2.013 1.212-2.494.385-.257-.441.103-2.487.154-3.731m.211 12.303c-1.368.063-3.453.41-4.105.188-.934-.318.704-1.772.291-2.846-.309-.766-1.725-1.278-2.731-1.278-1.186 0-2.842.587-2.554 1.616.258.92 1.223 1.996.389 2.474-.446.255-2.509-.102-3.763-.154m-.109-36.727c1.368-.062 3.453-.408 4.105-.187.934.318-.703 1.772-.29 2.846.308.766 1.724 1.277 2.73 1.277 1.186 0 2.842-.587 2.554-1.615-.258-.92-1.222-1.996-.388-2.474.445-.255 2.508.102 3.762.153m-.165 12.25c-.063-1.358-.412-3.426-.189-4.072.32-.927 1.787.697 2.87.288.772-.306 1.288-1.71 1.288-2.709 0-1.175-.592-2.818-1.63-2.532-.927.256-2.012 1.212-2.494.385-.257-.441.104-2.487.155-3.731m-24.64.125c1.368.062 3.453.409 4.104.187.935-.318-.703-1.772-.29-2.845.309-.767 1.725-1.278 2.731-1.278 1.186 0 2.842.587 2.554 1.615-.258.92-1.223 1.996-.389 2.474.445.255 2.508-.102 3.763-.153m-24.489-.116c.063 1.357.413 3.425.189 4.072-.32.926-1.787-.698-2.869-.289-.773.307-1.288 1.71-1.288 2.71 0 1.175.591 2.817 1.629 2.531.927-.255 2.012-1.212 2.494-.385.257.442-.103 2.488-.155 3.732m12.268-.018c-.063-1.357-.412-3.425-.189-4.071.32-.927 1.787.697 2.87.288.772-.307 1.288-1.71 1.288-2.71 0-1.175-.592-2.817-1.63-2.531-.927.255-2.012 1.212-2.494.385-.257-.442.103-2.488.155-3.732m12.363 12.37c.063-1.356.412-3.424.188-4.07-.32-.927-1.786.697-2.868.288-.774-.307-1.289-1.71-1.289-2.71 0-1.175.592-2.817 1.629-2.531.928.255 2.013 1.212 2.494.385.257-.442-.103-2.488-.154-3.732M18.6 16.29c1.368-.062 3.453-.409 4.105-.187.934.318-.703 1.772-.291 2.845.31.767 1.725 1.278 2.732 1.278 1.185 0 2.84-.587 2.553-1.615-.258-.92-1.222-1.997-.389-2.474.446-.255 2.509.102 3.763.153m-.354 12.296c1.368-.062 3.453-.409 4.105-.187.934.318-.703 1.772-.291 2.845.31.767 1.725 1.278 2.732 1.278 1.185 0 2.84-.587 2.553-1.616-.258-.92-1.222-1.996-.389-2.473.446-.255 2.509.102 3.763.153m.006-.025c-.063 1.357-.413 3.425-.19 4.071.321.927 1.787-.697 2.87-.288.773.307 1.288 1.71 1.288 2.71 0 1.175-.592 2.817-1.629 2.531-.927-.255-2.013-1.212-2.494-.385-.257.442.103 2.488.155 3.732m-12.48-.085c1.37.062 3.454.409 4.106.187.934-.318-.703-1.772-.291-2.845.31-.767 1.725-1.278 2.732-1.278 1.185 0 2.84.587 2.553 1.615-.258.92-1.222 1.997-.389 2.474.446.255 2.509-.102 3.763-.153m-24.489-.115c.063 1.357.413 3.424.19 4.07-.321.927-1.787-.697-2.87-.288-.773.307-1.288 1.711-1.288 2.71 0 1.175.592 2.817 1.629 2.532.928-.256 2.013-1.213 2.494-.386.257.442-.103 2.488-.155 3.732m12.48-.085c-1.37.063-3.454.41-4.106.187-.934-.318.703-1.771.291-2.845-.31-.767-1.725-1.278-2.732-1.278-1.185 0-2.84.587-2.553 1.616.258.92 1.222 1.996.389 2.474-.446.255-2.509-.103-3.763-.154m.014-12.103c-.063-1.357-.412-3.425-.188-4.071.32-.927 1.786.697 2.869.288.773-.307 1.288-1.71 1.288-2.71 0-1.175-.592-2.817-1.629-2.531-.928.255-2.013 1.212-2.494.385-.257-.442.103-2.488.154-3.732m12.248 24.541c-.063-1.357-.412-3.425-.189-4.071.321-.927 1.787.697 2.87.288.773-.306 1.288-1.71 1.288-2.709 0-1.176-.592-2.818-1.629-2.532-.928.255-2.013 1.212-2.494.385-.258-.441.103-2.488.154-3.731M18.698 28.537c1.369.062 3.454.409 4.105.187.935-.318-.703-1.772-.29-2.845.309-.767 1.724-1.278 2.731-1.278 1.186 0 2.842.587 2.554 1.615-.258.92-1.223 1.997-.389 2.474.445.255 2.508-.102 3.763-.153m-.086 12.376c.063-1.357.412-3.425.189-4.071-.32-.927-1.787.697-2.87.288-.772-.307-1.288-1.71-1.288-2.71 0-1.175.592-2.817 1.63-2.531.927.255 2.012 1.212 2.494.385.257-.442-.103-2.488-.155-3.732m12.248 24.541c.063-1.357.412-3.425.189-4.071-.32-.927-1.787.697-2.87.288-.772-.306-1.288-1.71-1.288-2.709 0-1.176.592-2.818 1.63-2.532.927.255 2.012 1.212 2.494.385.257-.441-.103-2.488-.155-3.731m-24.67.121c1.367-.062 3.452-.409 4.104-.187.934.318-.703 1.772-.29 2.845.308.767 1.724 1.278 2.731 1.278 1.185 0 2.841-.587 2.553-1.615-.258-.92-1.222-1.996-.388-2.474.445-.255 2.508.102 3.762.153m-.225 12.17c1.368-.062 3.453-.408 4.105-.187.934.318-.703 1.772-.29 2.846.308.766 1.724 1.278 2.73 1.278 1.186 0 2.842-.587 2.554-1.616-.258-.92-1.222-1.996-.388-2.474.445-.255 2.508.102 3.762.154" fill="none" stroke="url(#a)" stroke-width="1.191" stroke-linecap="round" stroke-linejoin="round" stroke-dasharray="none"/></svg>