<svg version="1.0" xmlns="http://www.w3.org/2000/svg" xmlns:xlink="http://www.w3.org/1999/xlink" width="200px" height="240px" viewBox="0 0 200 240" stroke="#fff"  fill="none" stroke-width="10" stroke-linecap="round">
    <defs>
        <linearGradient id="grad1">
            <stop offset="0%" style="stop-color:#653920;" />
            <stop offset="12%" style="stop-color:#CC9F22;" />
            <stop offset="32%" style="stop-color:#F9F9F9;" />
            <stop offset="50%" style="stop-color:#DAB263;" />
            <stop offset="70%" style="stop-color:#B7812E;" />
            <stop offset="100%" style="stop-color:#704123;" />
        </linearGradient>
        <linearGradient x1="-10%" y1="30%" x2="80%" y2="-0%" id="grad2" xlink:href="#grad1" gradientUnits="userSpaceOnUse" />
    </defs>
    <g transform="translate(220,42) rotate(108)" style="stroke:url(#grad2);" id="g4245">
        <path id="path4242" d="m 176,154 c -8,-33 -9,-48.7 1.5,-49.55 6.58,-0.37 9,11.2 22.6,10.6 13.65,-0.6 16.56,-18.83 16,-26.4 M 176,25 c -8,33 -9,48.7 1.5,49.55 6.58,0.37 9,-11.2 22.6,-10.6 13.65,0.6 16.56,18.83 16,26.4 M 176,24 c -33,-8 -48.7,-9 -49.55,1.5 -0.37,6.58 11.2,9 10.6,22.6 -0.6,13.65 -18.83,16.56 -26.4,16 M 47,24 c 33,-8 48.7,-9 49.55,1.5 0.37,6.58 -11.2,9 -10.6,22.6 0.6,13.65 18.83,16.56 26.4,16 M 46,154 c 8,-33 9,-48.7 -1.5,-49.55 -6.58,-0.37 -9,11.2 -22.6,10.6 C 8.25,114.45 5.34,96.22 5.9,88.65 M 46,25 c 8,33 9,48.7 -1.5,49.55 -6.58,0.37 -9,-11.2 -22.6,-10.6 -13.65,0.6 -16.56,18.83 -16,26.4 M 176,155 c -33,8 -48.7,9 -49.55,-1.5 -0.37,-6.58 11.2,-9 10.6,-22.6 -0.6,-13.65 -18.83,-16.56 -26.4,-16 M 47,155 c 33,8 48.7,9 49.55,-1.5 0.37,-6.58 -11.2,-9 -10.6,-22.6 0.6,-13.65 18.83,-16.56 26.4,-16" />
    </g>
</svg>
