<svg xmlns="http://www.w3.org/2000/svg" xmlns:xlink="http://www.w3.org/1999/xlink" width="200" height="240" viewBox="0 0 200 240" stroke="#fff" fill="none" stroke-width="10" stroke-linecap="round"><defs><linearGradient id="a"><stop offset="0%" stop-color="#653920"/><stop offset="12%" stop-color="#cc9f22"/><stop offset="32%" stop-color="#f9f9f9"/><stop offset="50%" stop-color="#dab263"/><stop offset="70%" stop-color="#b7812e"/><stop offset="100%" stop-color="#704123"/></linearGradient><linearGradient x1="-10%" y1="30%" x2="80%" y2="0%" id="b" xlink:href="#a" gradientUnits="userSpaceOnUse"/></defs><path d="M176 154c-8-33-9-48.7 1.5-49.55 6.58-.37 9 11.2 22.6 10.6 13.65-.6 16.56-18.83 16-26.4M176 25c-8 33-9 48.7 1.5 49.55 6.58.37 9-11.2 22.6-10.6 13.65.6 16.56 18.83 16 26.4M176 24c-33-8-48.7-9-49.55 1.5-.37 6.58 11.2 9 10.6 22.6-.6 13.65-18.83 16.56-26.4 16M47 24c33-8 48.7-9 49.55 1.5.37 6.58-11.2 9-10.6 22.6.6 13.65 18.83 16.56 26.4 16M46 154c8-33 9-48.7-1.5-49.55-6.58-.37-9 11.2-22.6 10.6-13.65-.6-16.56-18.83-16-26.4M46 25c8 33 9 48.7-1.5 49.55-6.58.37-9-11.2-22.6-10.6-13.65.6-16.56 18.83-16 26.4M176 155c-33 8-48.7 9-49.55-1.5-.37-6.58 11.2-9 10.6-22.6-.6-13.65-18.83-16.56-26.4-16M47 155c33 8 48.7 9 49.55-1.5.37-6.58-11.2-9-10.6-22.6.6-13.65 18.83-16.56 26.4-16" transform="rotate(108 94.743 100.92)" stroke="url(#b)"/></svg>