<svg version="1.0" xmlns="http://www.w3.org/2000/svg" width="222" height="179" viewBox="0 0 222 179" stroke="#fff" fill="none" stroke-width="10" stroke-linecap="round"><path d="M39.251 28.956c31.983-11.406 47.493-14.042 49.436-3.688 1.055 6.505-10.198 10.122-8.18 23.584 2.024 13.513 20.458 14.501 27.928 13.153"/><path d="M167.545 15.472c-33.656-4.507-49.374-3.86-49.122 6.67.32 6.583 12.08 7.78 12.904 21.369.83 13.638-16.996 18.437-24.583 18.672M52.944 159.238c33.656 4.507 49.374 3.86 49.122-6.671-.32-6.583-12.08-7.78-12.904-21.368-.83-13.638 16.996-18.438 24.583-18.672"/><path d="M181.238 145.754c-31.983 11.405-47.493 14.041-49.436 3.687-1.055-6.505 10.198-10.12 8.18-23.584-2.024-13.512-20.458-14.5-27.928-13.153"/><g><path d="M38.361 30.055C49.767 62.038 52.402 77.547 42.05 79.49c-6.505 1.056-10.122-10.198-23.584-8.18C4.952 73.335 3.964 91.769 5.312 99.239"/><path d="M51.845 158.348c4.507-33.655 3.86-49.374-6.67-49.122-6.583.32-7.78 12.08-21.369 12.905-13.638.83-18.438-16.996-18.672-24.583"/></g><g><path d="M167.65 16.466c-4.508 33.655-3.861 49.374 6.67 49.122 6.583-.32 7.78-12.08 21.368-12.904 13.638-.83 18.438 16.995 18.672 24.582"/><path d="M181.133 144.76c-11.405-31.984-14.041-47.493-3.687-49.436 6.505-1.056 10.121 10.198 23.584 8.18 13.512-2.024 14.5-20.458 13.153-27.928"/></g></svg>