<svg xmlns="http://www.w3.org/2000/svg" width="222px" height="179px" viewBox="0 0 222 179" stroke="#fff" fill="none" stroke-width="10" stroke-linecap="round">
    <g transform="translate(-10,10) rotate(-6)">
        <g id="oben">
            <path d="m47,24c33,-8 48.7,-9 49.55,1.5c0.37,6.58 -11.2,9 -10.6,22.6c0.6,13.65 18.83,16.56 26.4,16"/>
            <path d="m47,24c33,-8 48.7,-9 49.55,1.5c0.37,6.58 -11.2,9 -10.6,22.6c0.6,13.65 18.83,16.56 26.4,16" transform="translate(223) scale(-1,1)"/>
        </g>
        <g id="unten" transform="translate(0,179) scale(1,-1)">
            <path d="m47,24c33,-8 48.7,-9 49.55,1.5c0.37,6.58 -11.2,9 -10.6,22.6c0.6,13.65 18.83,16.56 26.4,16"/>
            <path d="m47,24c33,-8 48.7,-9 49.55,1.5c0.37,6.58 -11.2,9 -10.6,22.6c0.6,13.65 18.83,16.56 26.4,16" transform="translate(223) scale(-1,1)"/>
        </g>
        <g id="links" transform="translate(70,-22) rotate(90)">
            <path d="m47,24c33,-8 48.7,-9 49.55,1.5c0.37,6.58 -11.2,9 -10.6,22.6c0.6,13.65 18.83,16.56 26.4,16"/>
            <path d="m47,24c33,-8 48.7,-9 49.55,1.5c0.37,6.58 -11.2,9 -10.6,22.6c0.6,13.65 18.83,16.56 26.4,16" transform="translate(223) scale(-1,1)"/>
        </g>
        <g id="rechts" transform="translate(152,-22) rotate(90) scale(1,-1)">
            <path d="m47,24c33,-8 48.7,-9 49.55,1.5c0.37,6.58 -11.2,9 -10.6,22.6c0.6,13.65 18.83,16.56 26.4,16"/>
            <path d="m47,24c33,-8 48.7,-9 49.55,1.5c0.37,6.58 -11.2,9 -10.6,22.6c0.6,13.65 18.83,16.56 26.4,16" transform="translate(223) scale(-1,1)"/>
        </g>
    </g>
</svg>
