<svg xmlns="http://www.w3.org/2000/svg" width="222px" height="200px" viewBox="0 0 280 280" stroke="#fff" stroke-linecap="round" stroke-width="14" fill="none" >
  <g transform="translate(-10,18) rotate(-6)">
    <line x1="90" y1="10" x2="90" y2="260" />
    <line x1="180" y1="10" x2="180" y2="260" />
    <line y1="90" x1="10" y2="90" x2="260" />
    <line y1="180" x1="10" y2="180" x2="260" />
    <line x1="22" y1="22" x2="68" y2="68" /><line x1="68" y1="22" x2="22" y2="68" />
    <circle cx="225" cy="45" r="25" />
    <line x1="22" y1="112" x2="68" y2="158" /><line x1="68" y1="112" x2="22" y2="158" />
    <circle cx="135" cy="135" r="25" />
    <circle cx="225" cy="135" r="25" />
    <line x1="22" y1="202" x2="68" y2="248" /><line x1="68" y1="202" x2="22" y2="248" />
    <line x1="107" y1="202" x2="158" y2="248" /><line x1="158" y1="202" x2="112" y2="248" />
  </g>
</svg>
